<?xml version="1.0" encoding="UTF-8"?>
<svg width="44px" height="44px" viewBox="0 0 44 44" version="1.1" xmlns="http://www.w3.org/2000/svg" xmlns:xlink="http://www.w3.org/1999/xlink">
    <!-- Generator: Sketch 49.3 (51167) - http://www.bohemiancoding.com/sketch -->
    <title>Accept icon</title>
    <desc>Created with Sketch.</desc>
    <defs></defs>
    <g id="connection-interface" stroke="none" stroke-width="1" fill="none" fill-rule="evenodd">
        <g id="01-2_Онлайн-смс-Вызов" transform="translate(-719.000000, -564.000000)">
            <g id="Group-6" transform="translate(340.000000, 100.000000)">
                <g id="Group-5" transform="translate(171.000000, 464.000000)">
                    <g id="Accept" transform="translate(200.000000, 0.000000)">
                        <g id="Accept-icon" transform="translate(8.000000, 0.000000)">
                            <path d="M43.4859333,21.7222667 C43.4859333,33.7189333 33.7606,43.4442667 21.7639333,43.4442667 C9.7666,43.4442667 0.0412666667,33.7189333 0.0412666667,21.7222667 C0.0412666667,9.7256 9.7666,0.000266666667 21.7639333,0.000266666667 C33.7606,0.000266666667 43.4859333,9.7256 43.4859333,21.7222667" id="Fill-6" fill="#3478F6"></path>
                            <path d="M18.0970667,29.9724667 C17.6704,29.9724667 17.2444,29.8098 16.9184,29.4844667 L11.3350667,23.9011333 C10.6844,23.2498 10.6844,22.1951333 11.3350667,21.5438 C11.9864,20.8931333 13.0410667,20.8931333 13.6924,21.5438 L18.0970667,25.9491333 L29.8350667,14.2104667 C30.4864,13.5598 31.5410667,13.5598 32.1924,14.2104667 C32.8430667,14.8618 32.8430667,15.9164667 32.1924,16.5678 L19.2757333,29.4844667 C18.9497333,29.8098 18.5237333,29.9724667 18.0970667,29.9724667" id="Fill-8" fill="#FFFFFF"></path>
                        </g>
                    </g>
                </g>
            </g>
        </g>
    </g>
</svg>