<svg xmlns="http://www.w3.org/2000/svg" width="106" height="29" viewBox="0 0 106 29">
    <g fill="none" fill-rule="evenodd">
        <rect width="106" height="29" fill="#000" rx="4"/>
        <g fill="#FFF">
            <path d="M37.92 9.123h-1.878l-.646 1.607h-.357l1.86-4.573h.205l1.822 4.573h-.364l-.642-1.607zm-1.761-.287h1.654l-.63-1.642a7.895 7.895 0 0 1-.19-.536c-.056.2-.119.38-.186.542l-.648 1.636zm4.096 1.894l-1.329-3.386h.323l.889 2.302c.118.295.206.552.265.772h.02c.086-.282.174-.542.265-.778l.889-2.296h.322l-1.328 3.386h-.316zm4.308 0l-.08-.536h-.025c-.173.218-.35.372-.533.463-.182.09-.398.135-.647.135-.337 0-.6-.085-.787-.255-.188-.17-.282-.406-.282-.707 0-.33.14-.587.42-.77.279-.183.683-.28 1.212-.29l.655-.018v-.224c0-.322-.066-.565-.2-.73-.132-.164-.346-.246-.641-.246-.319 0-.649.088-.99.262l-.117-.268c.377-.174.75-.261 1.12-.261.377 0 .659.096.846.29.186.192.28.494.28.903v2.252h-.231zm-1.266-.218c.367 0 .657-.103.869-.31.212-.207.318-.494.318-.861v-.334l-.601.025c-.483.023-.828.097-1.033.223-.206.126-.309.321-.309.587 0 .212.066.377.198.494.132.117.318.176.558.176zm2.923.218h-.313V7.344h.313v3.386zm-.357-4.327c0-.2.066-.3.199-.3.065 0 .116.027.153.079a.378.378 0 0 1 .056.22.387.387 0 0 1-.056.222.176.176 0 0 1-.153.081c-.133 0-.2-.1-.2-.302zm1.821 4.327h-.313V5.883h.313v4.847zm3.24 0l-.08-.536h-.025c-.173.218-.35.372-.533.463-.182.09-.398.135-.647.135-.337 0-.6-.085-.787-.255-.188-.17-.282-.406-.282-.707 0-.33.14-.587.42-.77.279-.183.683-.28 1.212-.29l.655-.018v-.224c0-.322-.066-.565-.2-.73-.132-.164-.346-.246-.641-.246-.319 0-.649.088-.99.262l-.117-.268c.377-.174.75-.261 1.12-.261.377 0 .659.096.845.29.187.192.28.494.28.903v2.252h-.23zm-1.266-.218c.367 0 .656-.103.868-.31.212-.207.318-.494.318-.861v-.334l-.6.025c-.484.023-.828.097-1.033.223-.206.126-.309.321-.309.587 0 .212.066.377.198.494.132.117.318.176.558.176zm4.061-3.234c.481 0 .843.15 1.087.447.243.298.365.734.365 1.307 0 .563-.128.997-.384 1.302-.256.306-.616.458-1.08.458-.245 0-.465-.05-.661-.15-.196-.099-.351-.24-.465-.423h-.029l-.088.511h-.196V5.883h.313V7.1c0 .183-.004.35-.013.504l-.01.265h.023c.13-.203.288-.353.473-.448.184-.096.406-.144.665-.144zm-.006.28c-.405 0-.695.115-.87.343-.175.229-.262.606-.262 1.131v.053c0 .511.091.878.273 1.1.183.222.467.333.853.333.375 0 .658-.13.847-.388.19-.258.285-.626.285-1.104 0-.978-.375-1.467-1.126-1.467zm2.723 3.172h-.313V5.883h.313v4.847zm2.54.062c-.5 0-.889-.151-1.168-.455-.28-.303-.42-.727-.42-1.274 0-.54.135-.972.405-1.297.27-.325.634-.488 1.092-.488.404 0 .724.14.958.418.234.278.351.656.351 1.134v.249h-2.477c.005.465.115.82.331 1.065.216.245.526.368.928.368.196 0 .369-.014.517-.04.15-.028.337-.086.565-.175v.28c-.194.083-.373.14-.538.17-.164.03-.345.045-.544.045zm-.091-3.24c-.331 0-.597.108-.797.323-.2.215-.318.525-.352.93h2.126c0-.393-.087-.7-.26-.92-.172-.222-.412-.333-.717-.333zm6.784 1.48c0 .553-.136.984-.408 1.295-.272.31-.647.465-1.126.465-.301 0-.567-.071-.797-.215a1.38 1.38 0 0 1-.528-.616 2.214 2.214 0 0 1-.184-.929c0-.552.136-.983.408-1.291.272-.308.646-.463 1.12-.463.472 0 .843.157 1.112.47.269.312.403.74.403 1.284zm-2.714 0c0 .465.104.828.312 1.089.208.26.501.39.88.39.38 0 .674-.13.882-.39.207-.26.311-.624.311-1.089 0-.467-.105-.83-.315-1.087-.21-.258-.504-.386-.884-.386s-.672.128-.877.384c-.206.257-.309.62-.309 1.09zm6.064 1.698V8.534c0-.34-.073-.588-.218-.743-.146-.155-.372-.232-.677-.232-.412 0-.713.102-.903.307-.191.204-.287.536-.287.995v1.869h-.313V7.344h.266l.06.464h.019c.224-.353.621-.53 1.192-.53.78 0 1.17.413 1.17 1.237v2.215h-.31zm4.014-.212c.198 0 .37-.016.518-.05v.25c-.152.05-.327.074-.525.074-.303 0-.527-.08-.672-.24-.144-.16-.217-.41-.217-.753V7.612h-.509V7.43l.51-.14.158-.767h.16v.82h1.01v.268h-1.01v2.143c0 .26.047.452.14.576.093.125.238.187.437.187zm3.66.212V8.534c0-.34-.074-.588-.22-.743-.145-.155-.37-.232-.676-.232-.411 0-.712.102-.903.307-.19.204-.286.536-.286.995v1.869h-.313V5.883h.313v1.542l-.016.433h.022c.129-.204.291-.351.487-.443.196-.091.44-.137.73-.137.781 0 1.171.413 1.171 1.237v2.215h-.31zm2.811.062c-.5 0-.89-.151-1.169-.455-.28-.303-.419-.727-.419-1.274 0-.54.135-.972.405-1.297.27-.325.634-.488 1.091-.488.405 0 .725.14.959.418.234.278.35.656.35 1.134v.249h-2.476c.004.465.115.82.33 1.065.217.245.526.368.929.368.196 0 .369-.014.517-.04.149-.028.337-.086.565-.175v.28c-.194.083-.373.14-.538.17-.164.03-.346.045-.544.045zm-.092-3.24c-.33 0-.596.108-.797.323-.2.215-.317.525-.35.93h2.125c0-.393-.087-.7-.26-.92-.173-.222-.412-.333-.718-.333zM40.003 21.75l-.488-1.577h-2.452l-.487 1.577h-1.537l2.374-6.652h1.744l2.383 6.652h-1.537zm-.828-2.755c-.451-1.429-.705-2.237-.762-2.424a6.76 6.76 0 0 1-.121-.444c-.102.386-.391 1.342-.87 2.868h1.753zm5.926 2.846c-.605 0-1.078-.216-1.422-.648h-.074c.05.423.074.667.074.734v2.052h-1.403v-7.295h1.14l.199.657h.064c.328-.501.814-.752 1.458-.752.608 0 1.083.231 1.427.693.343.462.515 1.104.515 1.926 0 .54-.08 1.01-.242 1.41-.16.398-.39.702-.687.91a1.782 1.782 0 0 1-1.05.313zm-.414-4.146c-.347 0-.6.105-.76.314-.16.21-.242.557-.248 1.04v.15c0 .544.082.933.246 1.169.164.236.424.353.78.353.629 0 .943-.51.943-1.531 0-.499-.077-.872-.232-1.122-.155-.249-.398-.373-.73-.373zm6.376 4.146c-.604 0-1.078-.216-1.422-.648h-.073c.049.423.073.667.073.734v2.052h-1.403v-7.295h1.141l.198.657h.064c.329-.501.815-.752 1.459-.752.607 0 1.083.231 1.426.693.344.462.515 1.104.515 1.926 0 .54-.08 1.01-.241 1.41-.161.398-.39.702-.688.91a1.782 1.782 0 0 1-1.049.313zm-.414-4.146c-.347 0-.6.105-.76.314-.159.21-.241.557-.248 1.04v.15c0 .544.083.933.247 1.169.164.236.424.353.78.353.628 0 .943-.51.943-1.531 0-.499-.078-.872-.233-1.122-.155-.249-.398-.373-.729-.373zm10.08 2.215c0 .598-.218 1.07-.655 1.414-.438.344-1.046.517-1.825.517-.717 0-1.352-.133-1.904-.4v-1.304c.454.2.838.34 1.152.421.315.082.602.123.863.123.313 0 .553-.06.72-.177.167-.118.25-.293.25-.526a.574.574 0 0 0-.11-.346 1.229 1.229 0 0 0-.324-.293c-.143-.093-.433-.243-.872-.448-.411-.19-.72-.373-.925-.548a2.064 2.064 0 0 1-.492-.612 1.724 1.724 0 0 1-.184-.816c0-.586.202-1.047.605-1.382.403-.335.96-.503 1.672-.503.35 0 .683.04 1 .123.318.081.65.196.997.344l-.46 1.092a6.802 6.802 0 0 0-.89-.304 2.907 2.907 0 0 0-.693-.086c-.27 0-.477.062-.62.186a.609.609 0 0 0-.217.485c0 .124.03.232.087.324a.954.954 0 0 0 .279.267c.127.086.428.241.904.465.628.296 1.06.592 1.293.89.233.298.35.662.35 1.094zm3.276.83c.245 0 .54-.053.883-.16v1.03c-.35.154-.779.23-1.288.23-.561 0-.97-.14-1.226-.419-.256-.279-.384-.698-.384-1.257v-2.442h-.672v-.585l.773-.462.405-1.07h.897v1.08h1.44v1.037h-1.44v2.442c0 .196.056.341.168.435a.67.67 0 0 0 .444.14zm3.04-1.532c0 .501.084.88.252 1.137.167.257.439.385.816.385.374 0 .644-.127.808-.382.164-.256.246-.636.246-1.14 0-.501-.083-.878-.249-1.128-.165-.251-.437-.376-.814-.376-.374 0-.644.124-.81.373-.165.25-.248.626-.248 1.131zm3.557 0c0 .825-.22 1.47-.662 1.935-.442.465-1.057.698-1.845.698-.494 0-.93-.107-1.307-.32a2.14 2.14 0 0 1-.87-.917c-.202-.4-.303-.864-.303-1.396 0-.828.22-1.471.658-1.93.439-.46 1.055-.69 1.85-.69.493 0 .929.107 1.306.318.377.212.667.515.87.91.202.397.303.86.303 1.392zm4.03-2.62c.19 0 .349.014.474.042l-.105 1.296a1.631 1.631 0 0 0-.415-.046c-.447 0-.796.114-1.046.34-.25.227-.375.544-.375.952v2.578h-1.403v-5.066h1.062l.207.852h.07c.159-.284.374-.513.646-.687.271-.173.566-.26.885-.26zm3.35.984c-.298 0-.53.093-.7.279-.168.186-.265.45-.29.79h1.97c-.006-.34-.097-.604-.272-.79-.175-.186-.41-.279-.708-.279zm.198 4.269c-.829 0-1.476-.225-1.942-.676-.466-.45-.7-1.087-.7-1.912 0-.849.216-1.505.647-1.969.431-.463 1.027-.695 1.788-.695.726 0 1.292.204 1.697.612.405.407.608.97.608 1.69v.67H76.96c.016.393.134.7.355.92.22.22.53.331.929.331.31 0 .603-.032.879-.095.276-.064.564-.165.865-.304v1.07c-.246.12-.508.21-.787.27-.28.058-.62.088-1.021.088zM22.304 14.997c.022 2.37 2.111 3.158 2.135 3.169-.019.054-.335 1.124-1.102 2.229-.663.954-1.35 1.904-2.434 1.924-1.066.02-1.409-.622-2.627-.622-1.219 0-1.599.602-2.607.642-1.046.039-1.843-1.031-2.511-1.982-1.368-1.946-2.412-5.499-1.009-7.896.696-1.192 1.941-1.946 3.292-1.965 1.027-.018 1.998.682 2.625.682.628 0 1.808-.842 3.046-.718.519.02 1.975.205 2.91 1.552-.074.048-1.738 1-1.718 2.985zm-2.003-5.825c-.557.662-1.467 1.177-2.36 1.11-.12-.902.33-1.838.844-2.426.575-.662 1.544-1.154 2.344-1.186.102.917-.274 1.839-.828 2.502z"/>
        </g>
    </g>
</svg>
