<svg xmlns="http://www.w3.org/2000/svg" xmlns:xlink="http://www.w3.org/1999/xlink" width="106" height="29" viewBox="0 0 106 29">
    <defs>
        <path id="a" d="M9.46 5.103L6.45 3.392S.966.272.643.09C.322-.093 0 .017 0 .4v13.452c0 .287.23.412.51.252l5.94-3.379 3.01-1.71 2.893-1.646c.34-.193.307-.457.02-.61A400.532 400.532 0 0 1 9.46 5.103z"/>
        <path id="c" d="M9.46 5.103L6.45 3.392S.966.272.643.09C.322-.093 0 .017 0 .4v13.452c0 .287.23.412.51.252l5.94-3.379 3.01-1.71 2.893-1.646c.34-.193.307-.457.02-.61A400.532 400.532 0 0 1 9.46 5.103z"/>
        <path id="e" d="M9.46 5.103L6.45 3.392S.966.272.643.09C.322-.093 0 .017 0 .4v13.452c0 .287.23.412.51.252l5.94-3.379 3.01-1.71 2.893-1.646c.34-.193.307-.457.02-.61A400.532 400.532 0 0 1 9.46 5.103z"/>
        <path id="g" d="M9.46 5.103L6.45 3.392S.966.272.643.09C.322-.093 0 .017 0 .4v13.452c0 .287.23.412.51.252l5.94-3.379 3.01-1.71 2.893-1.646c.34-.193.307-.457.02-.61A400.532 400.532 0 0 1 9.46 5.103z"/>
    </defs>
    <g fill="none" fill-rule="evenodd">
        <rect width="106" height="29" fill="#000" rx="4"/>
        <g fill="#FFF">
            <path d="M38.439 18.32h2.668v3.435c-.432.138-.84.236-1.221.292a8.076 8.076 0 0 1-1.171.084c-1.015 0-1.79-.294-2.326-.882-.535-.587-.803-1.43-.803-2.53 0-1.07.31-1.904.932-2.502.621-.598 1.482-.897 2.583-.897.69 0 1.356.136 1.997.408l-.474 1.124a3.427 3.427 0 0 0-1.532-.363c-.616 0-1.11.204-1.481.612-.371.408-.557.956-.557 1.645 0 .719.15 1.268.449 1.647.299.379.733.569 1.304.569.297 0 .6-.03.906-.091v-1.382H38.44v-1.17zm5.277 1.178c0 .501.083.88.25 1.137.168.257.44.385.817.385.374 0 .643-.127.808-.382.164-.256.246-.636.246-1.14 0-.501-.083-.878-.249-1.128-.165-.251-.437-.376-.814-.376-.374 0-.644.124-.81.373-.165.25-.248.626-.248 1.131zm3.556 0c0 .825-.22 1.47-.662 1.935-.442.465-1.057.698-1.845.698-.494 0-.93-.107-1.307-.32a2.14 2.14 0 0 1-.87-.917c-.202-.4-.303-.864-.303-1.396 0-.828.22-1.471.658-1.93.438-.46 1.055-.69 1.85-.69.493 0 .929.107 1.306.318.377.212.667.515.87.91.202.397.303.86.303 1.392zm2.277 0c0 .501.084.88.251 1.137.167.257.44.385.817.385.374 0 .643-.127.807-.382.164-.256.246-.636.246-1.14 0-.501-.082-.878-.248-1.128-.166-.251-.437-.376-.814-.376-.375 0-.644.124-.81.373-.166.25-.249.626-.249 1.131zm3.557 0c0 .825-.221 1.47-.663 1.935-.441.465-1.056.698-1.845.698-.493 0-.929-.107-1.306-.32a2.14 2.14 0 0 1-.87-.917c-.202-.4-.303-.864-.303-1.396 0-.828.219-1.471.658-1.93.438-.46 1.055-.69 1.849-.69.494 0 .93.107 1.307.318.377.212.667.515.87.91.202.397.303.86.303 1.392zm5.636-2.524v.702l-.805.204c.147.227.22.48.22.762 0 .543-.192.967-.577 1.27-.385.304-.92.456-1.603.456l-.253-.014-.207-.022c-.145.108-.217.23-.217.362 0 .2.258.3.773.3h.874c.565 0 .995.119 1.29.357.297.239.445.59.445 1.052 0 .592-.25 1.05-.752 1.377-.502.326-1.222.49-2.16.49-.718 0-1.266-.124-1.645-.37s-.568-.591-.568-1.035c0-.305.096-.56.29-.766.193-.206.476-.352.85-.44a.937.937 0 0 1-.377-.296.699.699 0 0 1-.16-.438c0-.193.056-.354.17-.482.113-.129.277-.255.492-.379-.27-.114-.484-.299-.642-.552a1.663 1.663 0 0 1-.237-.898c0-.552.183-.98.548-1.282.365-.302.886-.453 1.564-.453.144 0 .315.013.513.038.198.026.324.045.38.057h1.794zm-3.97 5.782c0 .19.092.34.278.449.185.108.445.163.78.163.502 0 .897-.068 1.182-.204.285-.136.428-.322.428-.558 0-.19-.085-.321-.253-.394-.17-.072-.43-.109-.782-.109h-.727c-.258 0-.473.06-.647.18a.55.55 0 0 0-.26.473zm.51-4.123c0 .274.064.492.19.652.128.16.322.24.583.24.264 0 .457-.08.58-.24.122-.16.184-.378.184-.652 0-.61-.255-.916-.764-.916-.515 0-.773.305-.773.916zm5.71 3.407h-1.404v-7.05h1.403v7.05zm3.602-4.178c-.298 0-.53.093-.7.279-.168.186-.265.45-.29.79h1.97c-.006-.34-.097-.604-.272-.79-.175-.186-.41-.279-.708-.279zm.198 4.269c-.829 0-1.476-.225-1.942-.676-.466-.45-.7-1.087-.7-1.912 0-.849.216-1.505.647-1.969.431-.463 1.027-.695 1.788-.695.726 0 1.292.204 1.697.612.405.407.607.97.607 1.69v.67h-3.317c.016.393.134.7.355.92.22.22.53.331.929.331.31 0 .603-.032.879-.095.276-.064.564-.165.865-.304v1.07c-.246.12-.508.21-.787.27-.28.058-.62.088-1.021.088zm8.51 0c-.603 0-1.077-.216-1.42-.648h-.074c.049.423.073.667.073.734v2.052h-1.403v-7.295h1.141l.198.657h.064c.328-.501.815-.752 1.459-.752.607 0 1.082.231 1.426.693.343.462.515 1.104.515 1.926 0 .54-.08 1.01-.241 1.41-.161.398-.39.702-.688.91a1.782 1.782 0 0 1-1.05.313zm-.413-4.146c-.347 0-.6.105-.76.314-.159.21-.242.557-.248 1.04v.15c0 .544.082.933.246 1.169.164.236.424.353.78.353.629 0 .943-.51.943-1.531 0-.499-.077-.872-.232-1.122-.155-.249-.398-.373-.73-.373zm4.955 4.055H76.44v-7.05h1.403v7.05zm4.738 0l-.271-.689h-.037c-.236.293-.479.496-.729.61-.25.113-.576.17-.978.17-.493 0-.882-.14-1.166-.417-.284-.278-.425-.674-.425-1.187 0-.538.19-.935.572-1.19.382-.255.958-.396 1.728-.424l.892-.027v-.222c0-.513-.266-.77-.8-.77-.411 0-.894.122-1.45.367l-.464-.934a4.234 4.234 0 0 1 1.97-.457c.69 0 1.218.148 1.586.444.368.296.552.746.552 1.35v3.376h-.98zm-.414-2.347l-.542.018c-.408.012-.712.085-.911.217-.2.133-.3.336-.3.608 0 .39.228.584.681.584.326 0 .585-.092.78-.276.195-.185.292-.43.292-.734v-.417zm2.103-2.719h1.537l.97 2.85c.083.248.14.54.17.88h.028c.034-.312.1-.605.198-.88l.952-2.85h1.505l-2.176 5.714c-.2.529-.484.924-.854 1.187s-.801.394-1.295.394c-.242 0-.48-.025-.713-.077v-1.096c.169.04.353.059.552.059.248 0 .465-.075.651-.225.186-.15.33-.375.435-.677l.083-.25-2.043-5.029zM35.694 6.466h1.268c.571 0 .991.095 1.259.286.268.191.402.48.402.866a.93.93 0 0 1-.246.659c-.163.176-.402.288-.716.338v.019c.369.054.64.168.814.344.174.175.261.42.261.734 0 .42-.14.742-.423.968-.283.227-.684.34-1.202.34h-1.417V6.466zm.322 2.028h1.019c.434 0 .75-.072.947-.214.197-.142.296-.365.296-.668 0-.303-.111-.523-.334-.66-.222-.138-.554-.206-.995-.206h-.933v1.748zm0 .28v1.966h1.088c.856 0 1.284-.343 1.284-1.028 0-.626-.45-.938-1.353-.938h-1.019zm5.048 2.308c-.5 0-.889-.151-1.168-.455-.28-.303-.42-.727-.42-1.274 0-.54.135-.972.405-1.297.27-.325.634-.488 1.092-.488.404 0 .724.14.958.418.234.278.351.656.351 1.134v.249h-2.477c.005.465.115.82.331 1.065.216.245.526.368.928.368.196 0 .369-.014.518-.04.148-.028.336-.086.564-.175v.28c-.194.083-.373.14-.538.17-.164.03-.345.045-.544.045zm-.091-3.24c-.331 0-.597.108-.797.323-.2.215-.318.525-.352.93h2.126c0-.393-.086-.7-.26-.92-.172-.222-.412-.333-.717-.333zm3.166 2.966c.198 0 .37-.016.519-.05v.25c-.152.05-.327.074-.526.074-.303 0-.527-.08-.672-.24-.144-.16-.216-.41-.216-.753V7.902h-.51V7.72l.51-.14.158-.767h.161v.82h1.01v.268h-1.01v2.143c0 .26.047.452.14.576.092.125.238.187.436.187zm3.35.212l-.08-.536h-.025c-.173.218-.35.372-.533.463-.182.09-.398.135-.647.135-.337 0-.6-.085-.787-.255-.188-.17-.282-.406-.282-.707 0-.33.14-.587.42-.77.279-.183.683-.28 1.212-.29l.655-.018v-.224c0-.322-.066-.565-.2-.73-.132-.164-.346-.246-.641-.246-.319 0-.649.088-.99.262l-.117-.268c.377-.174.75-.261 1.12-.261.377 0 .659.096.845.29.187.192.28.494.28.903v2.252h-.23zm-1.266-.218c.367 0 .656-.103.868-.31.212-.207.318-.494.318-.861v-.334l-.6.025c-.484.023-.828.097-1.033.223-.206.126-.309.321-.309.587 0 .212.066.377.198.494.132.117.318.176.558.176zm5.045.218L49.94 7.634h.322l.89 2.302c.117.295.206.552.265.772h.019c.086-.282.175-.542.265-.778l.89-2.296h.322l-1.329 3.386h-.316zm3.61.062c-.5 0-.89-.151-1.17-.455-.279-.303-.419-.727-.419-1.274 0-.54.135-.972.405-1.297.27-.325.634-.488 1.091-.488.405 0 .725.14.959.418.234.278.35.656.35 1.134v.249h-2.476c.004.465.115.82.33 1.065.217.245.526.368.93.368.195 0 .368-.014.516-.04.149-.028.337-.086.565-.175v.28c-.194.083-.373.14-.538.17-.164.03-.346.045-.544.045zm-.093-3.24c-.33 0-.596.108-.797.323-.2.215-.317.525-.35.93h2.125c0-.393-.087-.7-.26-.92-.173-.222-.412-.333-.718-.333zm3.612-.274c.146 0 .302.015.469.044l-.06.296a1.859 1.859 0 0 0-.446-.053.87.87 0 0 0-.722.368c-.187.245-.281.554-.281.928v1.869h-.313V7.634h.265l.032.61h.022c.141-.249.292-.424.452-.525.16-.1.355-.15.582-.15zm3.3 2.57c0 .304-.118.537-.352.7-.234.163-.566.244-.996.244-.46 0-.824-.07-1.094-.208v-.334c.345.17.71.256 1.094.256.34 0 .597-.056.773-.167.176-.111.264-.259.264-.444 0-.17-.07-.313-.21-.43-.14-.116-.37-.23-.691-.342-.344-.123-.585-.228-.724-.317a.994.994 0 0 1-.315-.299.743.743 0 0 1-.106-.406c0-.254.108-.454.324-.601.216-.148.518-.222.906-.222.372 0 .724.069 1.057.206l-.117.28a2.51 2.51 0 0 0-.94-.205c-.28 0-.502.045-.667.137-.164.091-.247.218-.247.38 0 .176.064.318.192.423.127.106.377.225.748.356.31.11.535.209.677.297a.977.977 0 0 1 .318.3c.07.113.105.245.105.396zm1.198.882h-.313V7.634h.313v3.386zm-.357-4.327c0-.2.066-.3.2-.3.064 0 .116.027.152.079a.378.378 0 0 1 .056.22.387.387 0 0 1-.056.222.176.176 0 0 1-.153.081c-.133 0-.2-.1-.2-.302zm4.352 2.63c0 .552-.136.983-.408 1.294-.272.31-.647.465-1.126.465-.302 0-.567-.071-.797-.215a1.38 1.38 0 0 1-.528-.616 2.214 2.214 0 0 1-.184-.929c0-.552.136-.983.408-1.291.272-.308.646-.463 1.12-.463.472 0 .843.157 1.112.47.269.312.403.74.403 1.284zm-2.714 0c0 .464.104.827.312 1.088.207.26.501.39.88.39.38 0 .674-.13.882-.39.207-.26.311-.624.311-1.089 0-.467-.105-.83-.315-1.087-.21-.258-.504-.386-.884-.386s-.672.128-.877.384c-.206.257-.309.62-.309 1.09zm6.064 1.697V8.824c0-.34-.073-.588-.219-.743-.145-.155-.37-.232-.676-.232-.412 0-.713.102-.903.307-.191.204-.287.536-.287.995v1.869h-.313V7.634h.266l.06.464h.019c.223-.353.62-.53 1.192-.53.78 0 1.17.413 1.17 1.237v2.215h-.31z"/>
        </g>
        <g transform="translate(11.483 6.96)">
            <mask id="b" fill="#fff">
                <use xlink:href="#a"/>
            </mask>
            <path fill="#2CAFA2" d="M0-.223V14.34L7.457 7.06z" mask="url(#b)"/>
        </g>
        <g transform="translate(11.483 6.96)">
            <mask id="d" fill="#fff">
                <use xlink:href="#c"/>
            </mask>
            <path fill="#77E888" d="M9.46 5.103L6.45 3.392 0-.276v.053l7.457 7.282z" mask="url(#d)"/>
        </g>
        <g transform="translate(11.483 6.96)">
            <mask id="f" fill="#fff">
                <use xlink:href="#e"/>
            </mask>
            <path fill="#CC3A72" d="M0 14.34v.054l6.45-3.668 3.01-1.711-2.003-1.956z" mask="url(#f)"/>
        </g>
        <g transform="translate(11.483 6.96)">
            <mask id="h" fill="#fff">
                <use xlink:href="#g"/>
            </mask>
            <path fill="#EA9053" d="M9.46 5.103L7.456 7.06 9.46 9.015l3.44-1.956z" mask="url(#h)"/>
        </g>
    </g>
</svg>
