<?xml version="1.0" encoding="UTF-8"?>
<svg width="16px" height="16px" viewBox="0 0 16 16" version="1.1" xmlns="http://www.w3.org/2000/svg" xmlns:xlink="http://www.w3.org/1999/xlink">
    <!-- Generator: Sketch 46.2 (44496) - http://www.bohemiancoding.com/sketch -->
    <title>calendar-1</title>
    <desc>Created with Sketch.</desc>
    <defs></defs>
    <g id="user-interface" stroke="none" stroke-width="1" fill="none" fill-rule="evenodd">
        <g id="03-9_Клиент_заполнить-реквизиты" transform="translate(-504.000000, -505.000000)" fill="#FB3E5E">
            <g id="Group-15" transform="translate(469.000000, 142.000000)">
                <g id="Group-12" transform="translate(27.000000, 333.000000)">
                    <g id="calendar-1" transform="translate(8.000000, 30.000000)">
                        <path d="M1.45454545,3.27542541 L1.45454545,14.17912 C1.45454545,14.381677 1.61830786,14.5454545 1.82054589,14.5454545 L14.1794541,14.5454545 C14.3822925,14.5454545 14.5454545,14.382102 14.5454545,14.17912 L14.5454545,3.27542541 C14.5454545,3.07286843 14.3816921,2.90909091 14.1794541,2.90909091 L1.82054589,2.90909091 C1.61770754,2.90909091 1.45454545,3.07244348 1.45454545,3.27542541 Z M0,3.27542541 C0,2.26949988 0.814004112,1.45454545 1.82054589,1.45454545 L14.1794541,1.45454545 C15.1850455,1.45454545 16,2.2695752 16,3.27542541 L16,14.17912 C16,15.1850456 15.1859959,16 14.1794541,16 L1.82054589,16 C0.81495455,16 0,15.1849703 0,14.17912 L0,3.27542541 Z" id="Rectangle-55" fill-rule="nonzero"></path>
                        <path d="M4,0.727272727 C4,0.325611091 4.32561109,0 4.72727273,0 C5.12893436,0 5.45454545,0.325611091 5.45454545,0.727272727 L5.45454545,3.63636364 C5.45454545,4.03802527 5.12893436,4.36363636 4.72727273,4.36363636 C4.32561109,4.36363636 4,4.03802527 4,3.63636364 L4,0.727272727 Z" id="Line" fill-rule="nonzero"></path>
                        <path d="M10.5454545,0.727272727 C10.5454545,0.325611091 10.8710656,0 11.2727273,0 C11.6743889,0 12,0.325611091 12,0.727272727 L12,3.63636364 C12,4.03802527 11.6743889,4.36363636 11.2727273,4.36363636 C10.8710656,4.36363636 10.5454545,4.03802527 10.5454545,3.63636364 L10.5454545,0.727272727 Z" id="Line-Copy" fill-rule="nonzero"></path>
                        <circle id="Oval-25-Copy" cx="8" cy="7.63636364" r="1.09090909"></circle>
                        <circle id="Oval-25-Copy-2" cx="12" cy="7.63636364" r="1.09090909"></circle>
                        <circle id="Oval-25-Copy-5" cx="4" cy="11.6363636" r="1.09090909"></circle>
                        <circle id="Oval-25-Copy-4" cx="8" cy="11.6363636" r="1.09090909"></circle>
                    </g>
                </g>
            </g>
        </g>
    </g>
</svg>