<?xml version="1.0" encoding="UTF-8"?>
<svg width="29px" height="22px" viewBox="0 0 29 22" version="1.1" xmlns="http://www.w3.org/2000/svg" xmlns:xlink="http://www.w3.org/1999/xlink">
    <!-- Generator: Sketch 49.3 (51167) - http://www.bohemiancoding.com/sketch -->
    <title>Switch Camera Button</title>
    <desc>Created with Sketch.</desc>
    <defs></defs>
    <g id="connection-interface" stroke="none" stroke-width="1" fill="none" fill-rule="evenodd">
        <g id="07-2_Онлайн-конф.-" transform="translate(-891.000000, -393.000000)" fill="#FFFFFF">
            <g id="Group-6" transform="translate(341.000000, 100.000000)">
                <g id="Chat">
                    <path d="M564.758929,309.761905 C566.021982,309.761905 567.172143,309.273714 568.044214,308.479095 L569.144661,309.59219 C567.990357,310.669667 566.452839,311.333333 564.758929,311.333333 C561.315696,311.333333 558.513054,308.610048 558.310571,305.178571 L556.473214,305.178571 L559.0625,301.904762 L561.651786,305.178571 L559.865696,305.178571 C560.065589,307.738429 562.177929,309.761905 564.758929,309.761905 Z M571.219196,304.52381 L571.219196,304.524333 L573.044643,304.524333 L570.455357,307.798143 L567.866071,304.524333 L569.665625,304.524333 C569.529429,301.902667 567.383946,299.810048 564.758929,299.810048 C563.495357,299.810048 562.345714,300.298238 561.473643,301.092857 L560.373196,299.979762 C561.5275,298.901762 563.065018,298.238095 564.758929,298.238095 C568.246696,298.238095 571.081964,301.03 571.219196,304.52381 Z M567.811696,294.047619 C568.331107,294.047619 568.815821,294.310048 569.104268,294.747429 L570.512321,297.014476 C570.80025,297.451333 572.266821,297.714286 572.786232,297.714286 L576.411232,297.714286 C577.269321,297.714286 577.964804,298.417762 577.964804,299.285714 L577.964804,312.380952 C577.964804,313.248905 577.269321,313.952381 576.411232,313.952381 L552.589804,313.952381 C551.731714,313.952381 551.036232,313.248905 551.036232,312.380952 L551.036232,299.285714 C551.036232,298.417762 551.731714,297.714286 552.589804,297.714286 L556.214804,297.714286 C556.734214,297.714286 558.200786,297.451857 558.488714,297.014476 L559.896768,294.747429 C560.185214,294.310571 560.669929,294.047619 561.189339,294.047619 L567.811696,294.047619 L567.811696,294.047619 Z M567.811696,293 L561.188821,293 C560.320893,293 559.516143,293.436333 559.034536,294.166524 L557.626482,296.433571 C557.530161,296.579714 556.387768,296.666667 556.214286,296.666667 L552.589286,296.666667 C551.161554,296.666667 550,297.841571 550,299.285714 L550,312.380952 C550,313.825095 551.161554,315 552.589286,315 L576.410714,315 C577.838446,315 579,313.825095 579,312.380952 L579,299.285714 C579,297.841571 577.838446,296.666667 576.410714,296.666667 L572.785714,296.666667 C572.612232,296.666667 571.470357,296.57919 571.374036,296.433571 L569.965464,294.166524 C569.484375,293.436333 568.679107,293 567.811696,293 L567.811696,293 L567.811696,293 Z" id="Switch-Camera-Button"></path>
                </g>
            </g>
        </g>
    </g>
</svg>