<?xml version="1.0" encoding="UTF-8"?>
<svg width="15px" height="17px" viewBox="0 0 15 17" version="1.1" xmlns="http://www.w3.org/2000/svg" xmlns:xlink="http://www.w3.org/1999/xlink">
    <!-- Generator: Sketch 49.3 (51167) - http://www.bohemiancoding.com/sketch -->
    <title>Shape</title>
    <desc>Created with Sketch.</desc>
    <defs></defs>
    <g id="connection-interface" stroke="none" stroke-width="1" fill="none" fill-rule="evenodd">
        <g id="02-4_Онлайн-видеочат-Продления" transform="translate(-597.000000, -589.000000)" fill="#000000">
            <g id="Decline" transform="translate(583.000000, 576.000000)">
                <g id="mute">
                    <path d="M13.4444444,21.9305528 C13.4444444,19.3017664 15.6350998,17.1111111 18.2638861,17.1111111 L27.4646384,17.1111111 C29.3924151,17.1111111 30.9696869,18.6883829 30.9696869,20.6161596 C30.9696869,22.5439363 29.3924151,24.1212081 27.4646384,24.1212081 L20.0164104,24.1212081 C18.7896434,24.1212081 17.8257551,23.1573198 17.8257551,21.9305528 C17.8257551,20.7037858 18.7896434,19.7398975 20.0164104,19.7398975 L26.5883763,19.7398975 L26.5883763,21.0542907 L20.0164104,21.0542907 C19.4906531,21.0542907 19.1401483,21.4047955 19.1401483,21.9305528 C19.1401483,22.4563101 19.4906531,22.8068149 20.0164104,22.8068149 L27.4646384,22.8068149 C28.6914054,22.8068149 29.6552937,21.8429266 29.6552937,20.6161596 C29.6552937,19.3893926 28.6914054,18.4255043 27.4646384,18.4255043 L18.2638861,18.4255043 C16.3361095,18.4255043 14.7588376,20.0027761 14.7588376,21.9305528 C14.7588376,23.8583295 16.3361095,25.4356013 18.2638861,25.4356013 L26.5883763,25.4356013 L26.5883763,26.7499945 L18.2638861,26.7499945 C15.6350998,26.7499945 13.4444444,24.5593392 13.4444444,21.9305528 Z" id="Shape" transform="translate(22.207066, 21.930553) rotate(-45.000000) translate(-22.207066, -21.930553) "></path>
                </g>
            </g>
        </g>
    </g>
</svg>