<?xml version="1.0" encoding="UTF-8"?>
<svg width="14px" height="12px" viewBox="0 0 14 12" version="1.1" xmlns="http://www.w3.org/2000/svg" xmlns:xlink="http://www.w3.org/1999/xlink">
    <!-- Generator: Sketch 49.3 (51167) - http://www.bohemiancoding.com/sketch -->
    <title>speech-bubble</title>
    <desc>Created with Sketch.</desc>
    <defs></defs>
    <g id="connection-interface" stroke="none" stroke-width="1" fill="none" fill-rule="evenodd">
        <g id="07-2_Онлайн-конф.-" transform="translate(-403.000000, -737.000000)" fill="#4A4A4A" fill-rule="nonzero">
            <g id="Like-Comment" transform="translate(355.000000, 735.000000)">
                <g id="Comments" transform="translate(48.000000, 0.000000)">
                    <g id="speech-bubble" transform="translate(0.000000, 2.000000)">
                        <path d="M14,7.88321168 L14,1.58364964 C14,0.711240876 13.2801418,0 12.3971631,0 L1.60283688,0 C0.719858156,0 0,0.711240876 0,1.58364964 L0,7.88321168 C0,8.75562044 0.719858156,9.46686131 1.60283688,9.46686131 L2.06028369,9.46686131 L2.06028369,11.3658394 C2.06028369,11.7162044 2.34751773,12 2.70567376,12 C2.89007092,12 3.06737589,11.9194161 3.19148936,11.7792701 L5.21631206,9.46335766 L12.4007092,9.46335766 C13.2801418,9.46686131 14,8.75562044 14,7.88321168 Z M5.0141844,8.60846715 C4.88652482,8.60846715 4.76950355,8.6610219 4.68439716,8.75562044 L2.92553191,10.7632117 L2.92553191,9.03591241 C2.92553191,8.79766423 2.73049645,8.6049635 2.4893617,8.6049635 L1.60283688,8.6049635 C1.19858156,8.6049635 0.868794326,8.27912409 0.868794326,7.87970803 L0.868794326,1.58364964 C0.868794326,1.18423358 1.19858156,0.858394161 1.60283688,0.858394161 L12.3971631,0.858394161 C12.8014184,0.858394161 13.1312057,1.18423358 13.1312057,1.58364964 L13.1312057,7.88321168 C13.1312057,8.28262774 12.8014184,8.60846715 12.3971631,8.60846715 L5.0141844,8.60846715 Z" id="Shape"></path>
                        <circle id="Oval" cx="6.5" cy="4.5" r="1"></circle>
                        <circle id="Oval" cx="9.5" cy="4.5" r="1"></circle>
                        <circle id="Oval" cx="4.5" cy="4.5" r="1"></circle>
                    </g>
                </g>
            </g>
        </g>
    </g>
</svg>