<?xml version="1.0" encoding="UTF-8"?>
<svg width="44px" height="44px" viewBox="0 0 44 44" version="1.1" xmlns="http://www.w3.org/2000/svg" xmlns:xlink="http://www.w3.org/1999/xlink">
    <!-- Generator: Sketch 49.3 (51167) - http://www.bohemiancoding.com/sketch -->
    <title>Decline icon</title>
    <desc>Created with Sketch.</desc>
    <defs>
        <polygon id="path-1" points="0 43.9998 0 0.5558 43.4444667 0.5558 43.4444667 43.9998"></polygon>
    </defs>
    <g id="connection-interface" stroke="none" stroke-width="1" fill="none" fill-rule="evenodd">
        <g id="01-2_Онлайн-смс-Вызов" transform="translate(-527.000000, -564.000000)">
            <g id="Group-6" transform="translate(340.000000, 100.000000)">
                <g id="Group-5" transform="translate(171.000000, 464.000000)">
                    <g id="Decline">
                        <g id="Decline-icon" transform="translate(16.000000, 0.000000)">
                            <g id="Group-3">
                                <mask id="mask-2" fill="white">
                                    <use xlink:href="#path-1"></use>
                                </mask>
                                <g id="Clip-2"></g>
                                <path d="M43.4444667,22.2778 C43.4444667,34.2744667 33.7191333,43.9998 21.7224667,43.9998 C9.72513333,43.9998 -0.0002,34.2744667 -0.0002,22.2778 C-0.0002,10.2811333 9.72513333,0.5558 21.7224667,0.5558 C33.7191333,0.5558 43.4444667,10.2811333 43.4444667,22.2778" id="Fill-1" fill="#FF3B30" mask="url(#mask-2)"></path>
                            </g>
                            <path d="M24.8810621,22.5002526 L31.5069484,15.8745425 C32.1643505,15.2171578 32.1643505,14.1509283 31.5069484,13.4935437 C30.8495462,12.8354854 29.7826149,12.8354854 29.1258863,13.4935437 L22.5,20.1192538 L15.8741137,13.4935437 C15.2173851,12.8354854 14.1504538,12.8354854 13.4930516,13.4935437 C12.8356495,14.1509283 12.8356495,15.2171578 13.4930516,15.8745425 L20.1189379,22.5002526 L13.4930516,29.1259627 C12.8356495,29.7833474 12.8356495,30.8495768 13.4930516,31.5069615 C13.8217527,31.8356538 14.2528361,32 14.6839195,32 C15.1143293,32 15.5454126,31.8356538 15.8741137,31.5069615 L22.5,24.8812514 L29.1258863,31.5069615 C29.4539138,31.8356538 29.8856707,32 30.3160805,32 C30.7471639,32 31.1782473,31.8356538 31.5069484,31.5069615 C32.1643505,30.8495768 32.1643505,29.7833474 31.5069484,29.1259627 L24.8810621,22.5002526 Z" id="Fill-4" fill="#FFFFFF"></path>
                        </g>
                    </g>
                </g>
            </g>
        </g>
    </g>
</svg>