<?xml version="1.0" encoding="UTF-8"?>
<svg width="47px" height="32px" viewBox="0 0 47 32" version="1.1" xmlns="http://www.w3.org/2000/svg" xmlns:xlink="http://www.w3.org/1999/xlink">
    <!-- Generator: Sketch 49.3 (51167) - http://www.bohemiancoding.com/sketch -->
    <title>Options Left</title>
    <desc>Created with Sketch.</desc>
    <defs>
        <path d="M13.6456473,12.7021842 L13.6456473,10.2152275 C13.6456473,9.83962923 13.9490823,9.53514664 14.3233884,9.53514664 C14.6976945,9.53514664 15.0011296,9.83962923 15.0011296,10.2152275 L15.0011296,14.2957129 C15.0011296,14.483512 14.9252708,14.6535323 14.8026238,14.7766027 C14.6799768,14.8996731 14.5105415,14.9757938 14.3233884,14.9757938 L10.2569416,14.9757938 C9.88263549,14.9757938 9.57920044,14.6713112 9.57920044,14.2957129 C9.57920044,13.9201146 9.88263549,13.615632 10.2569416,13.615632 L12.639011,13.615632 L8.53850594,9.50097085 C8.27383156,9.23538275 8.27383156,8.80477934 8.53850594,8.53919123 C8.80318032,8.27360313 9.23230227,8.27360313 9.49697665,8.53919123 L13.6456473,12.7021842 Z M1.35548229,2.3219414 L1.35548229,4.76056624 C1.35548229,5.13616455 1.05204724,5.44064713 0.677741143,5.44064713 C0.303435045,5.44064713 0,5.13616455 0,4.76056624 L0,0.680080892 C0,0.492281739 0.0758587613,0.322261516 0.198505785,0.199191081 C0.321152808,0.0761206467 0.490588094,0 0.677741143,0 L4.744188,0 C5.1184941,0 5.42192914,0.304482587 5.42192914,0.680080892 C5.42192914,1.0556792 5.1184941,1.36016178 4.744188,1.36016178 L2.313953,1.36016178 L6.46262364,5.52315478 C6.72729802,5.78874289 6.72729802,6.21934629 6.46262364,6.4849344 C6.19794926,6.75052251 5.76882731,6.75052251 5.50415293,6.4849344 L1.35548229,2.3219414 Z" id="path-1"></path>
    </defs>
    <g id="connection-interface" stroke="none" stroke-width="1" fill="none" fill-rule="evenodd">
        <g id="08-2_Онлайн-эфир" transform="translate(-877.000000, -384.000000)">
            <g id="Options-Left" transform="translate(877.000000, 384.000000)">
                <rect id="Background" fill-opacity="0.5" fill="#464646" x="0" y="0.5" width="47" height="31" rx="8"></rect>
                <g id="Player-–-Maximize" transform="translate(16.000000, 9.000000)">
                    <rect id="Bounds" x="0" y="0" width="16" height="16"></rect>
                    <g id="Maximize" fill="#FFFFFF">
                        <use style="mix-blend-mode: soft-light;" xlink:href="#path-1"></use>
                        <use fill-opacity="0.4" xlink:href="#path-1"></use>
                        <use fill-opacity="0.6" style="mix-blend-mode: lighten;" xlink:href="#path-1"></use>
                    </g>
                </g>
            </g>
        </g>
    </g>
</svg>