<?xml version="1.0" encoding="UTF-8"?>
<svg width="15px" height="16px" viewBox="0 0 15 16" version="1.1" xmlns="http://www.w3.org/2000/svg" xmlns:xlink="http://www.w3.org/1999/xlink">
    <!-- Generator: Sketch 46.2 (44496) - http://www.bohemiancoding.com/sketch -->
    <title>Icon-Google-Plus</title>
    <desc>Created with Sketch.</desc>
    <defs></defs>
    <g id="user-interface" stroke="none" stroke-width="1" fill="none" fill-rule="evenodd" opacity="0.4">
        <g id="03-1_Клиент_главная" transform="translate(-1095.000000, -1736.000000)" fill="#FFFFFF">
            <g id="Footer" transform="translate(0.000000, 1442.000000)">
                <g id="BTM" transform="translate(168.000000, 294.000000)">
                    <g id="icons" transform="translate(822.000000, 0.000000)">
                        <g id="Icon-Google-Plus" transform="translate(105.000000, 0.000000)">
                            <path d="M8.90941935,9.86064516 C8.61832258,9.46993548 8.26477419,9.13393548 7.88903226,8.82529032 C7.52774194,8.52903226 7.07303226,8.24619355 6.82529032,7.83741935 C6.2523871,6.89187097 7.48696774,6.16412903 8.02116129,5.56645161 C9.2356129,4.20954839 8.91509677,1.71716129 7.36929032,0.737032258 C7.75277419,0.737032258 8.27974194,0.836645161 8.64309677,0.727225806 C9.06374194,0.600258065 9.50090323,0.225032258 9.88232258,0.00206451613 C8.56051613,0.00206451613 7.23870968,-0.00258064516 5.91690323,0.00206451613 C4.68232258,0.00619354839 3.40283871,0.181677419 2.42116129,0.990451613 C1.30425806,1.91070968 0.707096774,3.42090323 1.1643871,4.83664516 C1.69651613,6.4836129 3.42709677,7.1876129 5.03483871,6.99045161 C4.94503226,7.32954839 4.79690323,7.59793548 4.84180645,7.96129032 C4.89754839,8.41187097 5.15303226,8.82477419 5.42503226,9.17729032 C3.95716129,9.21496774 2.20748387,9.47148387 1.04877419,10.4474839 C-0.0469677419,11.3708387 -0.377806452,13.0461935 0.598193548,14.1729032 C1.60722581,15.3372903 3.47974194,15.5664516 4.92025806,15.4627097 C6.20025806,15.3703226 7.46941935,14.9687742 8.3963871,14.0474839 C9.48954839,12.9615484 9.88490323,11.1695484 8.90941935,9.86064516 C8.74529032,9.64025806 9.07354839,10.0810323 8.90941935,9.86064516 L8.90941935,9.86064516 L8.90941935,9.86064516 Z M5.32335484,6.47845161 C2.6683871,6.47845161 1.48335484,0.657032258 4.55122581,0.672 C6.05212903,0.679741935 6.73032258,2.34116129 6.95690323,3.58864516 C7.18864516,4.86709677 6.91458065,6.47845161 5.32335484,6.47845161 L5.32335484,6.47845161 L5.32335484,6.47845161 Z M7.89470968,13.4683871 C7.02348387,14.9589677 4.58167742,14.8165161 3.22735484,14.2188387 C1.8203871,13.5984516 1.10709677,11.771871 2.40309677,10.6255484 C2.96825806,10.1249032 3.80180645,9.90348387 4.5316129,9.80180645 C4.93470968,9.74554839 5.38116129,9.696 5.78787097,9.74141935 C6.08154839,9.77393548 6.25909677,9.94116129 6.50529032,10.1156129 C7.5716129,10.8712258 8.70916129,12.0738065 7.89470968,13.4683871 C7.72490323,13.7594839 8.06606452,13.1747097 7.89470968,13.4683871 L7.89470968,13.4683871 L7.89470968,13.4683871 Z" id="Fill-126"></path>
                            <polyline id="Fill-127" points="14.4516129 2.06451613 12.3870968 2.06451613 12.3870968 0 11.3548387 0 11.3548387 2.06451613 9.29032258 2.06451613 9.29032258 3.09677419 11.3548387 3.09677419 11.3548387 5.16129032 12.3870968 5.16129032 12.3870968 3.09677419 14.4516129 3.09677419 14.4516129 2.06451613"></polyline>
                        </g>
                    </g>
                </g>
            </g>
        </g>
    </g>
</svg>