<?xml version="1.0" encoding="UTF-8"?>
<svg width="16px" height="17px" viewBox="0 0 16 17" version="1.1" xmlns="http://www.w3.org/2000/svg" xmlns:xlink="http://www.w3.org/1999/xlink">
    <!-- Generator: Sketch 46.2 (44496) - http://www.bohemiancoding.com/sketch -->
    <title>headset</title>
    <desc>Created with Sketch.</desc>
    <defs></defs>
    <g id="user-interface" stroke="none" stroke-width="1" fill="none" fill-rule="evenodd">
        <g id="03-1_Клиент_главная" transform="translate(-832.000000, -486.000000)" fill-rule="nonzero" fill="#7ED321">
            <g id="Group-Copy-2" transform="translate(809.000000, 433.000000)">
                <g id="Group-Copy" transform="translate(23.000000, 53.000000)">
                    <g id="headset">
                        <path d="M0.463991906,13.4844834 L1.20603767,13.4844834 C1.06522815,16.1973975 4.00723607,16.7338111 6.29562696,16.6482499 C6.39018051,16.8051564 6.56417366,16.9115856 6.76556084,16.9115856 L9.09420479,16.9115856 C9.39559994,16.9115856 9.63989121,16.6756224 9.63989121,16.3845315 L9.63989121,15.9201695 C9.63989121,15.6290786 9.39556947,15.3931154 9.09420479,15.3931154 L6.76556084,15.3931154 C6.50000036,15.3931154 6.27920274,15.5764821 6.23035667,15.8193031 C4.37838084,15.912046 1.98312584,15.6445603 2.07822788,13.48466 L3.08248225,13.48466 C3.3387184,13.48466 3.54626085,13.2840163 3.54626085,13.036486 L3.54626085,7.78716674 C3.54626085,7.5396659 3.3385051,7.33899274 3.08248225,7.33899274 L1.677099,7.33899274 C1.86041649,4.1083843 4.63214879,1.44085572 7.89325588,1.44085572 C11.1543325,1.44085572 13.9260953,4.10820771 14.1094128,7.33899274 L12.6369005,7.33899274 C12.3806948,7.33899274 12.1730914,7.5396659 12.1730914,7.78716674 L12.1730914,13.036486 C12.1730914,13.2839869 12.3806643,13.48466 12.6369005,13.48466 L15.2555736,13.48466 C15.5117793,13.48466 15.7195655,13.2840163 15.7195655,13.036486 L15.7195655,7.78716674 C15.7195655,7.6760283 15.676113,7.57569171 15.606729,7.49734147 C15.5054412,3.4148875 12.0159186,0 7.89325588,0 C3.79201476,0 0.317240411,3.37977411 0.181458712,7.43411971 C0.0717912215,7.51588416 0,7.64288691 0,7.78716674 L0,13.036486 C0,13.2837808 0.207755751,13.4844834 0.463991906,13.4844834 Z" id="Shape"></path>
                    </g>
                </g>
            </g>
        </g>
    </g>
</svg>