<?xml version="1.0" encoding="UTF-8"?>
<svg width="16px" height="18px" viewBox="0 0 16 18" version="1.1" xmlns="http://www.w3.org/2000/svg" xmlns:xlink="http://www.w3.org/1999/xlink">
    <!-- Generator: Sketch 46.2 (44496) - http://www.bohemiancoding.com/sketch -->
    <title>Shape Copy</title>
    <desc>Created with Sketch.</desc>
    <defs></defs>
    <g id="user-interface" stroke="none" stroke-width="1" fill="none" fill-rule="evenodd">
        <g id="03-1_Клиент_главная" transform="translate(-192.000000, -727.000000)" fill-rule="nonzero" fill="#FACE02">
            <path d="M192.472269,741.352333 L193.227553,741.352333 C193.084232,744.239847 196.078724,744.810784 198.40794,744.719716 C198.50418,744.886721 198.681277,745 198.886257,745 L201.256444,745 C201.563216,745 201.811865,744.74885 201.811865,744.439025 L201.811865,743.944777 C201.811865,743.634952 201.563185,743.383802 201.256444,743.383802 L198.886257,743.383802 C198.615959,743.383802 198.391223,743.57897 198.341505,743.837419 C196.45649,743.936131 194.018504,743.65143 194.115303,741.352521 L195.137473,741.352521 C195.398281,741.352521 195.609526,741.138964 195.609526,740.875503 L195.609526,735.288342 C195.609526,735.024912 195.398063,734.811324 195.137473,734.811324 L193.707018,734.811324 C193.893606,731.372796 196.714786,728.533588 200.03407,728.533588 C203.353324,728.533588 206.174535,731.372608 206.361122,734.811324 L204.862341,734.811324 C204.601564,734.811324 204.390257,735.024912 204.390257,735.288342 L204.390257,740.875503 C204.390257,741.138932 204.601533,741.352521 204.862341,741.352521 L207.527731,741.352521 C207.788507,741.352521 208,741.138964 208,740.875503 L208,735.288342 C208,735.170051 207.955772,735.063256 207.88515,734.979864 C207.782056,730.634667 204.230281,727 200.03407,727 C195.859664,727 192.3229,730.597293 192.184696,734.912573 C192.073072,734.9996 192,735.134776 192,735.288342 L192,740.875503 C192,741.138713 192.211462,741.352333 192.472269,741.352333 Z" id="Shape-Copy"></path>
        </g>
    </g>
</svg>