<svg xmlns="http://www.w3.org/2000/svg" width="12" height="16" viewBox="0 0 12 16">
    <path fill="#FB3E5E" fill-rule="nonzero" d="M6 0c2.482 0 4.5 2.027 4.5 4.533 0 3.398-4.5 8.42-4.5 8.42S1.5 7.93 1.5 4.532C1.5 2.027 3.518 0 6 0zm0 3.048c-.828 0-1.5.682-1.5 1.523 0 .842.672 1.524 1.5 1.524s1.5-.682 1.5-1.524c0-.841-.672-1.523-1.5-1.523zm6 9.904C12 14.636 9.315 16 6 16s-6-1.364-6-3.048c0-.982.915-1.859 2.333-2.415l.48.693c-.81.343-1.313.816-1.313 1.341 0 1.052 2.018 1.905 4.5 1.905s4.5-.853 4.5-1.905c0-.525-.502-.998-1.313-1.34l.48-.694C11.085 11.093 12 11.97 12 12.952z"/>
</svg>
