<svg xmlns="http://www.w3.org/2000/svg" width="30" height="32" viewBox="0 0 30 32">
    <g fill="none" fill-rule="nonzero">
        <g fill="#000">
            <path d="M26.503 1.96a2.548 2.548 0 0 0-3.626-.571l-1.136.948.847 1.01L23.7 2.42c.534-.402 1.314-.278 1.727.303.448.63.356 1.59-.181 1.996l-.033.026-3.45 2.967.861.998 3.437-2.954c1.117-.862 1.282-2.616.443-3.796z"/>
            <path d="M28.25 6.754a2.55 2.55 0 0 0-3.614-.652l-2.874 2.207.805 1.045 2.859-2.196c.551-.397 1.329-.256 1.73.335.435.64.322 1.598-.223 1.99l-.036.03-5.156 4.305.847 1.01 5.14-4.291c1.134-.837 1.335-2.586.521-3.783z"/>
            <path d="M28.12 16.688l.034-.023c1.247-.944 1.61-2.326.978-3.622l-.02-.039c-.747-1.298-2.19-1.795-3.461-1.137l-.035.018-3.812 2.589.743 1.09 3.744-2.543c.603-.293 1.262-.061 1.664.62.335.706.151 1.398-.583 1.962l-5.283 3.502 3.568-.833c.704-.164 1.394.249 1.545.932.134.612-.215 1.148-1.168 1.862l-.26.202a42.017 42.017 0 0 1-2.932 2.06c-.34.218-.673.423-1 .615l.668 1.136c.343-.2.691-.415 1.045-.64a43.317 43.317 0 0 0 3.287-2.33c1.309-.98 1.926-1.93 1.65-3.187a2.525 2.525 0 0 0-1.23-1.664l.859-.57z"/>
        </g>
        <path fill="#000" d="M8.297 14.841a38.215 38.215 0 0 0-.141-1.638 34.327 34.327 0 0 0-.57-3.594C7.21 7.88 6.72 6.479 6.085 5.5 5.23 4.189 4.082 3.638 2.752 4.148c-.84.322-1.17 1.182-1.237 2.548-.044.894-.01 1.51.177 3.985.12 1.584.175 2.537.186 3.558.024 2.197-.2 3.934-.755 5.313-.912 2.265-.87 4.945.213 7.142 1.248 2.531 3.73 4.22 7.262 4.675.93.12 2.541-.381 4.783-1.35.396-.171.807-.355 1.228-.55a76.01 76.01 0 0 0 3.768-1.875l-.627-1.16a73.747 73.747 0 0 1-1.1.573c-.845.433-1.726.864-2.596 1.266-.412.19-.812.37-1.198.537-1.993.861-3.496 1.328-4.088 1.252-3.105-.4-5.2-1.825-6.247-3.95-.913-1.85-.948-4.142-.172-6.069.632-1.57.875-3.464.85-5.818-.012-1.058-.068-2.032-.19-3.643-.29-3.824-.23-5.032.217-5.204 1.266-.486 2.339 1.164 3.07 4.511.24 1.096.42 2.276.547 3.456a36.906 36.906 0 0 1 .135 1.566l1.319-.07z"/>
        <path fill="#FB3E5E" d="M19.814 0c1.615 0 3.01 1.385 3.01 3.015v21.69c0 1.627-1.39 2.968-3.01 2.968H9.9c-1.611 0-2.923-1.333-2.923-2.967V3.016C6.977 1.375 8.294 0 9.9 0h9.914zm0 1.318H9.9c-.863 0-1.602.773-1.602 1.697v21.69c0 .913.726 1.65 1.602 1.65h9.914c.9 0 1.69-.761 1.69-1.65V3.016c0-.9-.803-1.697-1.69-1.697z"/>
        <path fill="#FB3E5E" d="M7.638 5.271h14.418V3.953H7.638zM7.638 23.721h14.418v-1.318H7.638z"/>
    </g>
</svg>
