<svg xmlns="http://www.w3.org/2000/svg" width="32" height="32" viewBox="0 0 32 32">
    <g fill="none" fill-rule="nonzero">
        <path fill="#FB3E5E" d="M16.55 10.666c-2.464-.156-4.428-2.207-4.428-4.66a4.668 4.668 0 0 1 9.337 0c0 1.068-.358 2.133-.972 2.928l1.055.815c.796-1.03 1.25-2.382 1.25-3.742a6.002 6.002 0 0 0-12.003 0c0 3.162 2.516 5.79 5.676 5.99l.085-1.331z"/>
        <path fill="#FB3E5E" d="M20.672 20.667a6.002 6.002 0 1 1 0-12.004 6.002 6.002 0 0 1 0 12.004zm0-1.334a4.668 4.668 0 1 0 0-9.336 4.668 4.668 0 0 0 0 9.336z"/>
        <g fill="#000">
            <path d="M6.182 23.875c3.103-.505 6.879-.44 8.243-.04L21.8 26c.591.174.823.671.66 1.233-.164.56-.625.853-1.215.68l-7.747-2.274-.376 1.28 7.747 2.273c1.337.393 2.51-.351 2.87-1.586.36-1.234-.227-2.493-1.564-2.885l-7.373-2.164c-1.579-.463-5.548-.531-8.833.003l.214 1.316z"/>
            <path d="M23.317 26.896l5.745-2.619c.603-.275 1.109-.056 1.349.476.239.53.075 1.062-.48 1.315l-7.801 3.557c-.663.302-2.332.486-4.231.365-2.483-.159-5.141-.789-7.73-1.946-.64-.286-1.42-.283-2.413-.088-.311.062-.627.138-1.025.245-.039.01-.665.181-.821.221l.331 1.292c.168-.043.805-.217.834-.225.372-.1.662-.17.939-.224.744-.147 1.286-.15 1.61-.004 2.739 1.224 5.552 1.891 8.19 2.06 2.099.134 3.97-.073 4.869-.483l7.802-3.557c1.259-.573 1.668-1.91 1.141-3.076-.532-1.18-1.814-1.735-3.117-1.141l-5.746 2.619.554 1.213z"/>
            <path d="M1.384 22.333v8h4v-8h-4zM6.717 21v10.667H.05V21h6.667z"/>
        </g>
        <path fill="#FB3E5E" d="M18.35 17.23c.626.544 1.558.934 2.288.934 1.25 0 2.298-.916 2.298-2.093 0-1.086-.789-1.68-2.111-2.067-.846-.265-1.153-.495-1.153-.787 0-.398.414-.76.966-.76.371 0 .696.169.86.418l1.115-.73c-.414-.633-1.163-1.02-1.975-1.02-1.251 0-2.299.915-2.299 2.092 0 1.084.733 1.635 2.1 2.063.821.24 1.164.499 1.164.79 0 .4-.414.76-.965.76-.388 0-1.017-.263-1.412-.607l-.876 1.006z"/>
        <path fill="#FB3E5E" d="M19.97 10.678v.78h1.334v-.78zM19.97 17.83v.78h1.334v-.78zM14.828 8.296c.553.48 1.373.825 2.023.825 1.123 0 2.066-.825 2.066-1.89 0-.988-.708-1.521-1.879-1.863-.686-.216-.92-.39-.92-.584 0-.286.31-.556.733-.556.287 0 .536.128.658.315l1.115-.73c-.373-.57-1.044-.919-1.773-.919-1.122 0-2.065.825-2.065 1.89 0 .986.658 1.481 1.866 1.86.67.196.931.393.931.587 0 .286-.309.556-.732.556-.308 0-.826-.217-1.148-.497l-.875 1.006z"/>
        <path fill="#FB3E5E" d="M16.184 2.56v.668h1.334V2.56zM16.184 8.787v.669h1.334v-.669z"/>
    </g>
</svg>
