<svg xmlns="http://www.w3.org/2000/svg" width="14" height="16" viewBox="0 0 14 16">
    <path fill="#FB3E5E" fill-rule="nonzero" d="M.396 12.138h.618c-.117 2.34 2.334 2.803 4.241 2.73a.453.453 0 0 0 .392.227h1.94a.455.455 0 0 0 .455-.455v-.4a.455.455 0 0 0-.455-.455h-1.94a.455.455 0 0 0-.446.367c-1.543.08-3.54-.15-3.46-2.014h.837a.387.387 0 0 0 .386-.387V7.223a.387.387 0 0 0-.386-.387H1.407c.152-2.787 2.462-5.089 5.18-5.089 2.717 0 5.027 2.302 5.18 5.089H10.54a.387.387 0 0 0-.387.387v4.528c0 .214.173.387.387.387h2.182a.387.387 0 0 0 .387-.387V7.223a.383.383 0 0 0-.094-.25C12.93 3.45 10.022.503 6.587.503 3.169.504.273 3.42.16 6.918a.384.384 0 0 0-.151.305v4.528c0 .214.173.387.387.387z"/>
</svg>
