<?xml version="1.0" encoding="UTF-8"?>
<svg width="24px" height="24px" viewBox="0 0 24 24" version="1.1" xmlns="http://www.w3.org/2000/svg" xmlns:xlink="http://www.w3.org/1999/xlink">
    <!-- Generator: Sketch 46.2 (44496) - http://www.bohemiancoding.com/sketch -->
    <title>Clock</title>
    <desc>Created with Sketch.</desc>
    <defs></defs>
    <g id="profi-interface" stroke="none" stroke-width="1" fill="none" fill-rule="evenodd">
        <g id="12-8_Профи_-Календарь-доступа" transform="translate(-904.000000, -102.000000)" fill="#FB3E5E">
            <path d="M917,109 C917,108.447715 916.552285,108 916,108 C915.447715,108 915,108.447715 915,109 L915,115 C915,115.265216 915.105357,115.51957 915.292893,115.707107 L918.292893,118.707107 C918.683418,119.097631 919.316582,119.097631 919.707107,118.707107 C920.097631,118.316582 920.097631,117.683418 919.707107,117.292893 L917,114.585786 L917,109 Z M923.070714,121.070714 C921.182143,122.959643 918.670714,124 916,124 C913.328929,124 910.817857,122.959643 908.929286,121.070714 C907.040357,119.182143 906,116.671071 906,114 C906,111.329286 907.040357,108.818214 908.929286,106.929286 C910.817857,105.040357 913.328929,104 916,104 C918.670714,104 921.182143,105.040357 923.070714,106.929286 C924.959643,108.818214 926,111.329286 926,114 C926,116.671071 924.959643,119.182143 923.070714,121.070714 L923.070714,121.070714 Z M907.514875,105.51525 C905.248375,107.781375 904,110.794875 904,114 C904,117.205125 905.248375,120.218625 907.514875,122.48475 C909.781375,124.751625 912.7945,126 916,126 C919.205125,126 922.21825,124.751625 924.48475,122.48475 C926.751625,120.218625 928,117.205125 928,114 C928,110.794875 926.751625,107.781375 924.485125,105.51525 C922.21825,103.248375 919.205125,102 916,102 C912.7945,102 909.781375,103.248375 907.514875,105.51525 Z" id="Clock"></path>
        </g>
    </g>
</svg>