<svg xmlns="http://www.w3.org/2000/svg" width="18" height="16" viewBox="0 0 18 16">
    <path fill="#FB3E5E" fill-rule="nonzero" d="M5.806 6.254a1.236 1.236 0 0 0-1.735-.01 1.203 1.203 0 0 0-.01 1.726l2.928 2.933a1.226 1.226 0 0 0 1.735 0l8.914-8.818a1.22 1.22 0 0 0 .01-1.726 1.227 1.227 0 0 0-1.735 0l-2.697 2.663A7.707 7.707 0 0 0 7.69.698C3.449.698 0 4.13 0 8.35 0 12.57 3.45 16 7.69 16c3.42 0 6.378-2.185 7.37-5.436a1.22 1.22 0 0 0-.821-1.527 1.237 1.237 0 0 0-1.535.818c-.661 2.175-2.727 3.701-5.013 3.701-2.888 0-5.234-2.334-5.234-5.207 0-2.873 2.346-5.207 5.234-5.207a5.27 5.27 0 0 1 3.78 1.616l-3.6 3.561-2.065-2.065z"/>
</svg>
