<svg xmlns="http://www.w3.org/2000/svg" width="15" height="16" viewBox="0 0 15 16">
    <g fill="#FB3E5E" fill-rule="nonzero">
        <path d="M1.91 2.064a.406.406 0 0 0-.571-.003.398.398 0 0 0-.003.57l.963.967a.404.404 0 0 0 .57 0L5.801.688a.403.403 0 0 0-.567-.57l-.887.88A2.53 2.53 0 0 0 0 2.755 2.53 2.53 0 0 0 2.53 5.28c1.124 0 2.097-.72 2.423-1.794a.403.403 0 0 0-.27-.504.407.407 0 0 0-.505.27 1.721 1.721 0 0 1-3.37-.497A1.721 1.721 0 0 1 3.773 1.57L2.589 2.745l-.68-.681zM2.48 5.6A2.482 2.482 0 0 0 0 8.08a2.482 2.482 0 0 0 2.48 2.48 2.482 2.482 0 0 0 2.48-2.48A2.482 2.482 0 0 0 2.48 5.6zm0 4.168a1.689 1.689 0 0 1 0-3.376 1.689 1.689 0 0 1 0 3.376zM4.96 13.52a2.482 2.482 0 0 0-2.48-2.48A2.482 2.482 0 0 0 0 13.52 2.482 2.482 0 0 0 2.48 16a2.482 2.482 0 0 0 2.48-2.48zm-2.48 1.691a1.689 1.689 0 0 1 0-3.376 1.689 1.689 0 0 1 0 3.376zM14.156 7.68H6.324a.402.402 0 0 0-.404.4c0 .221.18.4.404.4h7.832a.402.402 0 0 0 .404-.4c0-.221-.18-.4-.404-.4zM14.156 2.4H6.324a.402.402 0 0 0-.404.4c0 .221.18.4.404.4h7.832a.402.402 0 0 0 .404-.4c0-.221-.18-.4-.404-.4zM14.156 13.12H6.324a.402.402 0 0 0-.404.4c0 .221.18.4.404.4h7.832a.4.4 0 1 0 0-.8z"/>
    </g>
</svg>
