<svg xmlns="http://www.w3.org/2000/svg" width="16" height="16" viewBox="0 0 16 16">
    <path fill="#FB3E5E" fill-rule="evenodd" d="M8.667 4.667a.667.667 0 0 0-1.334 0v4c0 .176.07.346.196.471l2 2a.667.667 0 1 0 .942-.943L8.667 8.391V4.667zm4.047 8.047A6.622 6.622 0 0 1 8 14.667a6.622 6.622 0 0 1-4.714-1.953A6.622 6.622 0 0 1 1.333 8c0-1.78.694-3.455 1.953-4.714A6.622 6.622 0 0 1 8 1.333c1.78 0 3.455.694 4.714 1.953A6.623 6.623 0 0 1 14.667 8c0 1.78-.694 3.455-1.953 4.714zM8 0a7.946 7.946 0 0 0-5.657 2.343A7.947 7.947 0 0 0 0 8c0 2.137.832 4.146 2.343 5.657A7.946 7.946 0 0 0 8 16a7.946 7.946 0 0 0 5.657-2.343A7.946 7.946 0 0 0 16 8a7.947 7.947 0 0 0-2.343-5.657A7.947 7.947 0 0 0 8 0z"/>
</svg>
