<?xml version="1.0" encoding="UTF-8"?>
<svg width="12px" height="12px" viewBox="0 0 12 12" version="1.1" xmlns="http://www.w3.org/2000/svg" xmlns:xlink="http://www.w3.org/1999/xlink">
    <!-- Generator: Sketch 46.2 (44496) - http://www.bohemiancoding.com/sketch -->
    <title>Group</title>
    <desc>Created with Sketch.</desc>
    <defs></defs>
    <g id="user-interface" stroke="none" stroke-width="1" fill="none" fill-rule="evenodd">
        <g id="03-7-1_Клиент_Онлайн-эфир" transform="translate(-859.000000, -601.000000)" fill="#F5A623">
            <g id="Group-3-Copy" transform="translate(842.000000, 588.000000)">
                <g id="Group" transform="translate(17.000000, 13.000000)">
                    <path d="M5.99313623,0.507965217 C9.01550472,0.507965217 11.4739499,2.96626042 11.4739014,5.98873043 C11.4739014,9.01094139 9.01534719,11.4694957 5.99313623,11.4694957 C2.9706491,11.4694957 0.512371014,9.01108262 0.512371014,5.98873043 C0.512371014,2.96610209 2.97050788,0.507965217 5.99313623,0.507965217 Z M5.99313623,0.971733333 C3.22663994,0.971733333 0.97613913,3.22223414 0.97613913,5.98873043 C0.97613913,8.75495626 3.22678686,11.0057275 5.99313623,11.0057275 C8.75921513,11.0057275 11.0101333,8.75480933 11.0101333,5.98872672 C11.0101777,3.22239595 8.75937776,0.971733333 5.99313623,0.971733333 Z" id="Shape" fill-rule="nonzero"></path>
                    <path d="M6.01006377,7.67870145 L6.01006377,6.65998841 C6.01006377,6.60164603 6.04849403,6.54833272 6.10838517,6.52709525 C7.28037948,6.11122249 7.94866087,5.5204798 7.94866087,4.63874783 C7.94866087,3.58128607 6.98782791,2.73702029 5.8163942,2.73702029 C5.0497717,2.73702029 4.35111291,3.10091163 3.971319,3.68437406 L4.35999694,3.93737667 C4.65257621,3.48789866 5.20381797,3.20078841 5.8163942,3.20078841 C6.74408272,3.20078841 7.48489275,3.8517242 7.48489275,4.63874783 C7.48489275,5.26914043 6.96061375,5.7325889 5.95334201,6.09001118 C5.71006133,6.17627881 5.33333333,6.41014496 5.33333333,6.66666667 L5.33333333,7.68537971 L6.01006377,7.67870145 Z" id="Shape" fill-rule="nonzero"></path>
                    <circle id="Oval-2" cx="5.66666667" cy="8.33333333" r="1"></circle>
                </g>
            </g>
        </g>
    </g>
</svg>