<svg xmlns="http://www.w3.org/2000/svg" width="15" height="16" viewBox="0 0 15 16">
    <g fill="#FFF" fill-rule="evenodd" opacity=".4">
        <path d="M8.91 9.86a5.997 5.997 0 0 0-1.021-1.035c-.361-.296-.816-.579-1.064-.988-.573-.945.662-1.673 1.196-2.27 1.215-1.357.894-3.85-.652-4.83.384 0 .91.1 1.274-.01.42-.127.858-.502 1.24-.725-1.322 0-2.644-.005-3.966 0C4.682.006 3.403.182 2.42.99 1.304 1.91.707 3.42 1.164 4.837c.533 1.647 2.263 2.35 3.87 2.153-.089.34-.237.608-.192.971.056.45.311.864.583 1.216-1.468.038-3.218.294-4.376 1.27-1.096.924-1.427 2.6-.45 3.726 1.008 1.164 2.88 1.393 4.321 1.29 1.28-.093 2.55-.494 3.476-1.416 1.094-1.085 1.489-2.877.513-4.186-.164-.22.165.22 0 0zM5.322 6.479c-2.655 0-3.84-5.821-.772-5.806 1.501.008 2.18 1.67 2.406 2.917.232 1.278-.042 2.89-1.634 2.89zm2.572 6.99c-.872 1.491-3.313 1.349-4.668.75-1.407-.62-2.12-2.446-.824-3.592.565-.501 1.399-.723 2.129-.824.403-.056.85-.106 1.256-.06.294.032.471.2.717.374 1.067.755 2.204 1.958 1.39 3.352-.17.291.171-.293 0 0z"/>
        <path d="M14.452 2.065h-2.065V0h-1.032v2.065H9.29v1.032h2.065V5.16h1.032V3.097h2.065V2.065"/>
    </g>
</svg>
