<?xml version="1.0" encoding="UTF-8"?>
<svg width="22px" height="22px" viewBox="0 0 22 22" version="1.1" xmlns="http://www.w3.org/2000/svg" xmlns:xlink="http://www.w3.org/1999/xlink">
    <!-- Generator: Sketch 46.2 (44496) - http://www.bohemiancoding.com/sketch -->
    <title>Group 5</title>
    <desc>Created with Sketch.</desc>
    <defs></defs>
    <g id="user-interface" stroke="none" stroke-width="1" fill="none" fill-rule="evenodd">
        <g id="03-2_Клиент_фильтр-категории" transform="translate(-586.000000, -232.000000)">
            <g id="Group-3" transform="translate(416.000000, 185.000000)">
                <g id="Group-5" transform="translate(170.000000, 47.000000)">
                    <circle id="Oval-Copy" fill="#EFEFF4" cx="11" cy="11" r="11"></circle>
                    <path d="M6.2951684,14.77087 L6.76722074,14.77087 C6.67764478,16.5354623 8.54920281,16.8843681 10.0049624,16.8287155 C10.0651127,16.930774 10.1757984,17 10.3039108,17 L11.7852774,17 C11.9770099,17 12.1324158,16.8465197 12.1324158,16.6571821 L12.1324158,16.3551417 C12.1324158,16.165804 11.9769906,16.0123237 11.7852774,16.0123237 L10.3039108,16.0123237 C10.1349746,16.0123237 9.99451417,16.1315931 9.96344076,16.289534 C8.78530652,16.3498578 7.2615653,16.1758739 7.32206445,14.7709848 L7.96092077,14.7709848 C8.12392537,14.7709848 8.25595348,14.6404778 8.25595348,14.4794738 L8.25595348,11.0650978 C8.25595348,10.9041129 8.12378968,10.7735867 7.96092077,10.7735867 L7.06688636,10.7735867 C7.18350376,8.67226436 8.94674097,6.9371926 11.0212939,6.9371926 C13.0958275,6.9371926 14.8590841,8.67214949 14.9757015,10.7735867 L14.0389629,10.7735867 C13.8759777,10.7735867 13.7439108,10.9041129 13.7439108,11.0650978 L13.7439108,14.4794738 C13.7439108,14.6404586 13.8759583,14.7709848 14.0389629,14.7709848 L15.7048316,14.7709848 C15.8678168,14.7709848 16,14.6404778 16,14.4794738 L16,11.0650978 C16,10.9928087 15.9723576,10.9275456 15.928219,10.8765833 C15.8637848,8.22118514 13.6439254,6 11.0212939,6 C8.4122898,6 6.20181245,8.19834593 6.11543494,10.8354613 C6.04566998,10.8886443 6,10.9712521 6,11.0650978 L6,14.4794738 C6,14.6403246 6.1321638,14.77087 6.2951684,14.77087 Z" id="Shape-Copy" fill="#FACE02" fill-rule="nonzero"></path>
                </g>
            </g>
        </g>
    </g>
</svg>