<svg xmlns="http://www.w3.org/2000/svg" xmlns:xlink="http://www.w3.org/1999/xlink" width="50" height="50" viewBox="0 0 50 50">
    <defs>
        <circle id="a" cx="25" cy="25" r="25"/>
    </defs>
    <g fill="none" fill-rule="evenodd">
        <mask id="b" fill="#fff">
            <use xlink:href="#a"/>
        </mask>
        <use fill="#E9E9E9" xlink:href="#a"/>
        <path fill="#FACE02" fill-rule="nonzero" d="M16.472 30.21h.756c-.144 2.858 2.85 3.423 5.18 3.333a.553.553 0 0 0 .478.278h2.37a.555.555 0 0 0 .556-.556v-.489a.555.555 0 0 0-.556-.555h-2.37a.555.555 0 0 0-.544.449c-1.886.098-4.323-.184-4.227-2.46h1.022c.261 0 .473-.212.473-.473v-5.531a.472.472 0 0 0-.473-.472h-1.43c.187-3.405 3.008-6.216 6.327-6.216 3.32 0 6.14 2.811 6.327 6.216h-1.499a.472.472 0 0 0-.472.472v5.531c0 .261.212.473.472.473h2.666c.26 0 .472-.212.472-.473v-5.531a.468.468 0 0 0-.115-.306c-.103-4.302-3.655-7.9-7.85-7.9-4.175 0-7.712 3.561-7.85 7.834a.469.469 0 0 0-.185.372v5.531c0 .261.211.472.472.472z" mask="url(#b)"/>
    </g>
</svg>
