<?xml version="1.0" encoding="UTF-8"?>
<svg width="16px" height="16px" viewBox="0 0 16 16" version="1.1" xmlns="http://www.w3.org/2000/svg" xmlns:xlink="http://www.w3.org/1999/xlink">
    <!-- Generator: Sketch 46.2 (44496) - http://www.bohemiancoding.com/sketch -->
    <title>Group</title>
    <desc>Created with Sketch.</desc>
    <defs></defs>
    <g id="profi-interface" stroke="none" stroke-width="1" fill="none" fill-rule="evenodd">
        <g id="12-1_Профи_-профиль" transform="translate(-171.000000, -249.000000)" fill="#FB3E5E">
            <g id="Group-4" transform="translate(171.000000, 88.000000)">
                <g id="Group" transform="translate(0.000000, 161.000000)">
                    <path d="M7.99084831,0.677286957 C12.020673,0.677286957 15.2985998,3.9550139 15.2985353,7.98497391 C15.2985353,12.0145885 12.0204629,15.2926609 7.99084831,15.2926609 C3.96086547,15.2926609 0.683161353,12.0147768 0.683161353,7.98497391 C0.683161353,3.95480278 3.96067718,0.677286957 7.99084831,0.677286957 Z M7.99084831,1.29564444 C4.30218659,1.29564444 1.30151884,4.29631219 1.30151884,7.98497391 C1.30151884,11.673275 4.30238248,14.6743034 7.99084831,14.6743034 C11.6789535,14.6743034 14.6801778,11.6730791 14.6801778,7.98496896 C14.6802369,4.29652793 11.6791703,1.29564444 7.99084831,1.29564444 Z" id="Shape" fill-rule="nonzero"></path>
                    <path d="M8.01341836,10.2382686 L8.01341836,8.87998454 C8.01341836,8.80219471 8.06465871,8.7311103 8.14451356,8.70279367 C9.70717264,8.14829666 10.5982145,7.36063973 10.5982145,6.1849971 C10.5982145,4.77504809 9.31710388,3.64936039 7.75519227,3.64936039 C6.73302894,3.64936039 5.80148388,4.13454884 5.295092,4.91249874 L5.81332926,5.24983556 C6.20343495,4.65053154 6.93842396,4.26771787 7.75519227,4.26771787 C8.99211029,4.26771787 9.979857,5.13563226 9.979857,6.1849971 C9.979857,7.02552057 9.28081834,7.64345187 7.93778935,8.12001491 C7.6134151,8.23503841 7.11111111,8.54685994 7.11111111,8.88888889 L7.11111111,10.2471729 L8.01341836,10.2382686 Z" id="Shape" fill-rule="nonzero"></path>
                    <circle id="Oval-2" cx="7.55555556" cy="11.1111111" r="1"></circle>
                </g>
            </g>
        </g>
    </g>
</svg>