<?xml version="1.0" encoding="UTF-8"?>
<svg width="34px" height="34px" viewBox="0 0 34 34" version="1.1" xmlns="http://www.w3.org/2000/svg" xmlns:xlink="http://www.w3.org/1999/xlink">
    <!-- Generator: Sketch 46.2 (44496) - http://www.bohemiancoding.com/sketch -->
    <title>Group 3</title>
    <desc>Created with Sketch.</desc>
    <defs></defs>
    <g id="profi-interface" stroke="none" stroke-width="1" fill="none" fill-rule="evenodd">
        <g id="12-1_Профи_-профиль" transform="translate(-786.000000, -87.000000)">
            <g id="Group-5" transform="translate(392.000000, 88.000000)">
                <g id="Group-3" transform="translate(395.000000, 0.000000)">
                    <path d="M22.5948861,18.9759333 L22.0327305,19.9574 C21.8774577,20.2288333 21.5340441,20.3212 21.2648667,20.1648 L19.7036381,19.2558667 C18.9114067,20.1574333 17.8397976,20.8034333 16.6236827,21.0527667 L16.6236827,22.3 C16.6236827,22.6133667 16.3726394,22.8666667 16.0620937,22.8666667 L14.9377825,22.8666667 C14.6272368,22.8666667 14.3761936,22.6133667 14.3761936,22.3 L14.3761936,21.0527667 C13.1600787,20.8034333 12.0884695,20.1574333 11.2962381,19.2558667 L9.73500953,20.1648 C9.46583219,20.3212 9.12241857,20.2288333 8.96714574,19.9574 L8.40499012,18.9759333 C8.2497173,18.7050667 8.34208763,18.3582667 8.61069828,18.2024333 L10.1781604,17.2889667 C9.9917197,16.7257 9.88008194,16.1267333 9.88008194,15.5 C9.88008194,14.8732667 9.9917197,14.2748667 10.1781604,13.7110333 L8.61069828,12.7981333 C8.34208763,12.6417333 8.2497173,12.2955 8.40499012,12.0240667 L8.96714574,11.0426 C9.12241857,10.7717333 9.46583219,10.6788 9.73500953,10.8352 L11.2962381,11.7441333 C12.0884695,10.8425667 13.1600787,10.1965667 14.3761936,9.94723333 L14.3761936,8.7 C14.3761936,8.38663333 14.6272368,8.13333333 14.9377825,8.13333333 L16.0620937,8.13333333 C16.3726394,8.13333333 16.6236827,8.38663333 16.6236827,8.7 L16.6236827,9.94723333 C17.8397976,10.1965667 18.9114067,10.8425667 19.7036381,11.7441333 L21.2648667,10.8352 C21.5340441,10.6788 21.8774577,10.7717333 22.0327305,11.0426 L22.5948861,12.0240667 C22.7501589,12.2955 22.6577886,12.6417333 22.389178,12.7981333 L20.8217158,13.7110333 C21.0081565,14.2748667 21.1197943,14.8732667 21.1197943,15.5 C21.1197943,16.1267333 21.0081565,16.7257 20.8217158,17.2889667 L22.389178,18.2024333 C22.6577886,18.3582667 22.7501589,18.7050667 22.5948861,18.9759333 L22.5948861,18.9759333 Z M23.4381196,17.5037333 L22.1217007,16.7376 C22.1953703,16.3352667 22.2441055,15.9244333 22.2441055,15.5 C22.2441055,15.0761333 22.1953703,14.6647333 22.1217007,14.2624 L23.4381196,13.4962667 C23.9759075,13.1834667 24.1595148,12.4898667 23.8489692,11.9481333 L22.7252246,9.9852 C22.4152457,9.44346667 21.7272851,9.25703333 21.1900637,9.5704 L19.8600443,10.3439 C19.238953,9.81123333 18.5328584,9.37546667 17.7479939,9.09496667 L17.7479939,8.13333333 C17.7479939,7.50773333 17.244774,7 16.6236827,7 L14.3761936,7 C13.7551023,7 13.2518823,7.50773333 13.2518823,8.13333333 L13.2518823,9.09496667 C12.4670179,9.37546667 11.7609232,9.81123333 11.1398319,10.3439 L9.80981249,9.5704 C9.27259119,9.25703333 8.58463058,9.44346667 8.27465162,9.9852 L7.15090706,11.9481333 C6.84036141,12.4898667 7.02453538,13.1834667 7.56175668,13.4962667 L8.87817555,14.2624 C8.80450596,14.6647333 8.7557707,15.0761333 8.7557707,15.5 C8.7557707,15.9244333 8.80450596,16.3352667 8.87817555,16.7376 L7.56175668,17.5037333 C7.02453538,17.8165333 6.84036141,18.5101333 7.15090706,19.0518667 L8.27465162,21.0148 C8.58463058,21.5565333 9.27259119,21.7429667 9.80981249,21.4296 L11.1398319,20.6561 C11.7609232,21.1887667 12.4670179,21.6251 13.2518823,21.9050333 L13.2518823,22.8666667 C13.2518823,23.4922667 13.7551023,24 14.3761936,24 L16.6236827,24 C17.244774,24 17.7479939,23.4922667 17.7479939,22.8666667 L17.7479939,21.9050333 C18.5328584,21.6251 19.238953,21.1887667 19.8600443,20.6561 L21.1900637,21.4296 C21.7272851,21.7429667 22.4152457,21.5565333 22.7252246,21.0148 L23.8489692,19.0518667 C24.1595148,18.5101333 23.9759075,17.8165333 23.4381196,17.5037333 L23.4381196,17.5037333 Z M15.4999381,17.2 C14.5688679,17.2 13.8140379,16.4389667 13.8140379,15.5 C13.8140379,14.5616 14.5688679,13.8 15.4999381,13.8 C16.4310084,13.8 17.1858383,14.5616 17.1858383,15.5 C17.1858383,16.4389667 16.4310084,17.2 15.4999381,17.2 L15.4999381,17.2 Z M15.4999381,12.6666667 C13.9477766,12.6666667 12.6902934,13.9348667 12.6902934,15.5 C12.6902934,17.0651333 13.9477766,18.3333333 15.4999381,18.3333333 C17.0520997,18.3333333 18.3101496,17.0651333 18.3101496,15.5 C18.3101496,13.9348667 17.0520997,12.6666667 15.4999381,12.6666667 L15.4999381,12.6666667 Z" id="Fill-172" fill="#007AFF"></path>
                    <circle id="Oval-3" stroke="#007AFF" stroke-width="0.5" cx="16" cy="16" r="16"></circle>
                </g>
            </g>
        </g>
    </g>
</svg>