<svg xmlns="http://www.w3.org/2000/svg" width="16" height="13" viewBox="0 0 16 13">
    <path fill="#FB3E5E" fill-rule="nonzero" d="M14.667 1.895h-3.334v-.632C11.333.567 10.735 0 10 0H6c-.735 0-1.333.566-1.333 1.263v.632H1.333C.598 1.895 0 2.46 0 3.158v8.21c0 .697.598 1.264 1.333 1.264h13.334c.735 0 1.333-.567 1.333-1.264v-8.21c0-.697-.598-1.263-1.333-1.263zm-9.334-.632c0-.348.3-.631.667-.631h4c.367 0 .667.283.667.631v.632H5.333v-.632zm10 10.105c0 .349-.299.632-.666.632H1.333c-.367 0-.666-.283-.666-.632V6.772c.197.108.422.175.666.175h5.334v.948c0 .174.149.316.333.316h2a.325.325 0 0 0 .333-.316v-.948h5.334c.244 0 .47-.066.666-.175v4.596zm-8-3.789V6.316h1.334v1.263H7.333zm8-1.895c0 .348-.299.632-.666.632H9.333V6A.325.325 0 0 0 9 5.684H7A.325.325 0 0 0 6.667 6v.316H1.333c-.367 0-.666-.284-.666-.632V3.158c0-.348.299-.632.666-.632h13.334c.367 0 .666.284.666.632v2.526z"/>
</svg>
