<svg xmlns="http://www.w3.org/2000/svg" width="15" height="18" viewBox="0 0 15 18">
    <path fill="none" fill-rule="nonzero" stroke="#FB3E5E" d="M1.2 15.857C1.2 16.245 3.459 17 7.6 17s6.4-.755 6.4-1.143v-.925c0-.735-.427-1.41-1.115-1.761l-2.719-1.39a1.317 1.317 0 0 1-.737-1.165V9.467l.07-.079c.008-.008.755-.855 1.04-2.019l.028-.113.103-.063a.563.563 0 0 0 .282-.479V5.571a.55.55 0 0 0-.204-.421l-.1-.085v-1.78l.002-.037c.001-.007.105-.8-.489-1.434C9.656 1.274 8.794 1 7.6 1c-1.19 0-2.05.272-2.556.808-.593.629-.495 1.433-.494 1.44l.002 1.817-.1.085a.548.548 0 0 0-.204.421v1.143c0 .25.174.468.433.543l.152.044.049.141a5.84 5.84 0 0 0 .863 1.632c.09.12.179.227.255.309l.076.08v1.18c0 .505-.3.96-.782 1.186l-2.911 1.364c-.73.342-1.183 1.03-1.183 1.795v.87z"/>
</svg>
