<?xml version="1.0" encoding="UTF-8"?>
<svg width="16px" height="16px" viewBox="0 0 16 16" version="1.1" xmlns="http://www.w3.org/2000/svg" xmlns:xlink="http://www.w3.org/1999/xlink">
    <!-- Generator: Sketch 46.2 (44496) - http://www.bohemiancoding.com/sketch -->
    <title>Fill 172</title>
    <desc>Created with Sketch.</desc>
    <defs></defs>
    <g id="user-interface" stroke="none" stroke-width="1" fill="none" fill-rule="evenodd">
        <g id="04-6_Клиент_избранное" transform="translate(-173.000000, -747.000000)" fill="#9B9B9B">
            <g id="Group-4" transform="translate(171.000000, 88.000000)">
                <g id="Group-7" transform="translate(2.000000, 658.000000)">
                    <path d="M14.6775399,12.2719136 L14.1484522,13.1956836 C14.0023131,13.4511604 13.6791003,13.5380972 13.4257569,13.3908913 L11.9563653,12.5353907 C11.2107357,13.3839577 10.2021624,13.9919818 9.0575837,14.2266578 L9.0575837,15.400571 C9.0575837,15.695516 8.82130766,15.9339255 8.52902941,15.9339255 L7.47085411,15.9339255 C7.17857586,15.9339255 6.94229982,15.695516 6.94229982,15.400571 L6.94229982,14.2266578 C5.7977211,13.9919818 4.78914778,13.3839577 4.04351821,12.5353907 L2.57412661,13.3908913 C2.32078323,13.5380972 1.99757042,13.4511604 1.85143129,13.1956836 L1.32234364,12.2719136 C1.17620451,12.0169702 1.2631413,11.6905572 1.51595132,11.5438848 L2.99120982,10.6841173 C2.81573619,10.153963 2.71066536,9.59020729 2.71066536,9.00031723 C2.71066536,8.41042718 2.81573619,7.84720484 2.99120982,7.31651713 L1.51595132,6.45728306 C1.2631413,6.31007723 1.17620451,5.98419764 1.32234364,5.72872084 L1.85143129,4.80495088 C1.99757042,4.55000743 2.32078323,4.4625373 2.57412661,4.60974314 L4.04351821,5.46524373 C4.78914778,4.61667674 5.7977211,4.00865263 6.94229982,3.77397666 L6.94229982,2.60006345 C6.94229982,2.30511842 7.17857586,2.06670896 7.47085411,2.06670896 L8.52902941,2.06670896 C8.82130766,2.06670896 9.0575837,2.30511842 9.0575837,2.60006345 L9.0575837,3.77397666 C10.2021624,4.00865263 11.2107357,4.61667674 11.9563653,5.46524373 L13.4257569,4.60974314 C13.6791003,4.4625373 14.0023131,4.55000743 14.1484522,4.80495088 L14.6775399,5.72872084 C14.823679,5.98419764 14.7367422,6.31007723 14.4839322,6.45728306 L13.0086737,7.31651713 C13.1841473,7.84720484 13.2892182,8.41042718 13.2892182,9.00031723 C13.2892182,9.59020729 13.1841473,10.153963 13.0086737,10.6841173 L14.4839322,11.5438848 C14.7367422,11.6905572 14.823679,12.0169702 14.6775399,12.2719136 L14.6775399,12.2719136 Z M15.4711713,10.8862587 L14.2321889,10.1651634 C14.301525,9.78648174 14.3473935,9.39979974 14.3473935,9.00031723 C14.3473935,8.60136808 14.301525,8.21415273 14.2321889,7.83547104 L15.4711713,7.11437578 C15.9773248,6.81996411 16.1501316,6.16713822 15.8578533,5.65725134 L14.8002114,3.80971141 C14.5084665,3.29982453 13.8609742,3.1243509 13.3553541,3.41929593 L12.1035711,4.1473248 C11.5190146,3.64597159 10.8544549,3.23582199 10.115759,2.97181152 L10.115759,2.06670896 C10.115759,1.47788562 9.64214021,1 9.0575837,1 L6.94229982,1 C6.35774331,1 5.88412453,1.47788562 5.88412453,2.06670896 L5.88412453,2.97181152 C5.14542857,3.23582199 4.48086889,3.64597159 3.89631237,4.1473248 L2.6445294,3.41929593 C2.13890935,3.1243509 1.49141701,3.29982453 1.19967211,3.80971141 L0.142030173,5.65725134 C-0.150248083,6.16713822 0.0230921238,6.81996411 0.528712173,7.11437578 L1.76769464,7.83547104 C1.69835855,8.21415273 1.65249007,8.60136808 1.65249007,9.00031723 C1.65249007,9.39979974 1.69835855,9.78648174 1.76769464,10.1651634 L0.528712173,10.8862587 C0.0230921238,11.1806704 -0.150248083,11.8334962 0.142030173,12.3433831 L1.19967211,14.1909231 C1.49141701,14.7008099 2.13890935,14.8762836 2.6445294,14.5813385 L3.89631237,13.8533097 C4.48086889,14.3546629 5.14542857,14.7653458 5.88412453,15.0288229 L5.88412453,15.9339255 C5.88412453,16.5227489 6.35774331,17.0006345 6.94229982,17.0006345 L9.0575837,17.0006345 C9.64214021,17.0006345 10.115759,16.5227489 10.115759,15.9339255 L10.115759,15.0288229 C10.8544549,14.7653458 11.5190146,14.3546629 12.1035711,13.8533097 L13.3553541,14.5813385 C13.8609742,14.8762836 14.5084665,14.7008099 14.8002114,14.1909231 L15.8578533,12.3433831 C16.1501316,11.8334962 15.9773248,11.1806704 15.4711713,10.8862587 L15.4711713,10.8862587 Z M7.99994176,10.6003807 C7.12364035,10.6003807 6.41321218,9.88408561 6.41321218,9.00031723 C6.41321218,8.11708221 7.12364035,7.40025379 7.99994176,7.40025379 C8.87624317,7.40025379 9.58667134,8.11708221 9.58667134,9.00031723 C9.58667134,9.88408561 8.87624317,10.6003807 7.99994176,10.6003807 L7.99994176,10.6003807 Z M7.99994176,6.33354482 C6.53908383,6.33354482 5.35557024,7.52719215 5.35557024,9.00031723 C5.35557024,10.4734423 6.53908383,11.6670896 7.99994176,11.6670896 C9.46079969,11.6670896 10.6448466,10.4734423 10.6448466,9.00031723 C10.6448466,7.52719215 9.46079969,6.33354482 7.99994176,6.33354482 L7.99994176,6.33354482 Z" id="Fill-172"></path>
                </g>
            </g>
        </g>
    </g>
</svg>