<svg xmlns="http://www.w3.org/2000/svg" width="16" height="15" viewBox="0 0 16 15">
    <path fill="#9B9B9B" fill-rule="evenodd" d="M12.99 6V3c1.975 0 1.995-.105 1.995 1s-.893 2-1.996 2zm-.999-1c0 2.209-1.786 5-3.991 5S4.009 7.209 4.009 5V2c0-.495.519-1 .997-1h5.988c.478 0 .997.49.997 1v3zm-8.98 1a1.998 1.998 0 0 1-1.996-2c0-1.105.02-1 1.996-1v3zm9.978-4c0-1.105-.893-2-1.995-2H5.006a1.998 1.998 0 0 0-1.995 2C-.407 2 .017 2 .017 4c0 1.657 1.34 3 2.994 3 .119 0 .233-.019.348-.035.67 1.962 2.248 3.73 4.142 3.999V14H6.004a.5.5 0 0 0 0 1h3.992a.5.5 0 0 0 0-1H8.499v-3.036c1.894-.27 3.472-2.037 4.143-3.999.114.016.228.035.347.035a2.997 2.997 0 0 0 2.994-3c0-2 .424-2-2.994-2z"/>
</svg>
