<svg xmlns="http://www.w3.org/2000/svg" width="15" height="16" viewBox="0 0 15 16">
    <path fill="#FB3E5E" fill-rule="evenodd" d="M14 9.031h-2.5a.5.5 0 0 0-.5.498v1.991c0 .275.224.498.5.498H14v2.489a.499.499 0 0 1-.5.497h-12a.499.499 0 0 1-.5-.497V5.049h12.5c.276 0 .5.223.5.498v3.484zm0 1.494v.497h-2v-.995h2v.498zm-1-9.458v2.987H3.25L13 1.067zm1 2.987V.57c0-.276-.118-.428-.375-.529-.198-.078-.39-.031-.625.03L0 4.055v10.95c0 .55.448.996 1 .996h13c.552 0 1-.446 1-.996V5.05a.998.998 0 0 0-1-.995z"/>
</svg>
