<?xml version="1.0" encoding="UTF-8"?>
<svg width="22px" height="22px" viewBox="0 0 22 22" version="1.1" xmlns="http://www.w3.org/2000/svg" xmlns:xlink="http://www.w3.org/1999/xlink">
    <!-- Generator: Sketch 50 (54983) - http://www.bohemiancoding.com/sketch -->
    <title>Graphics / Custom Icons / iMessage / Microphone</title>
    <desc>Created with Sketch.</desc>
    <defs></defs>
    <g id="connection-interface" stroke="none" stroke-width="1" fill="none" fill-rule="evenodd">
        <g id="05_Офлайн-аудиочат" transform="translate(-915.000000, -710.000000)" fill="#8A8A8F">
            <g id="Chat" transform="translate(371.000000, 0.000000)">
                <g id="Graphics-/-Custom-Icons-/-iMessage-/-Microphone" transform="translate(544.000000, 710.000000)">
                    <path d="M11,22 C4.92486775,22 0,17.0751322 0,11 C0,4.92486775 4.92486775,0 11,0 C17.0751322,0 22,4.92486775 22,11 C22,17.0751322 17.0751322,22 11,22 Z M11,3.38461538 C9.67183344,3.38461538 8.5951417,4.46130712 8.5951417,5.78947368 L8.5951417,11.4008097 C8.5951417,12.7289763 9.67183344,13.805668 11,13.805668 C12.3281666,13.805668 13.4048583,12.7289763 13.4048583,11.4008097 L13.4048583,5.78947368 C13.4048583,4.46130712 12.3281666,3.38461538 11,3.38461538 Z M15.208502,8.5951417 C14.8764604,8.5951417 14.6072874,8.86431463 14.6072874,9.19635628 L14.6072874,11.4008097 C14.6072874,13.3930596 12.9922498,15.0080972 11,15.0080972 C9.00775015,15.0080972 7.39271255,13.3930596 7.39271255,11.4008097 L7.39271255,9.19635628 C7.39271255,8.86431463 7.12353962,8.5951417 6.79149798,8.5951417 C6.45945633,8.5951417 6.1902834,8.86431463 6.1902834,9.19635628 L6.1902834,11.4008097 C6.19147088,13.823781 7.99481776,15.8675742 10.3987854,16.1704453 L10.3987854,17.4129555 L8.79554656,17.4129555 C8.46350492,17.4129555 8.19433198,17.6821284 8.19433198,18.01417 C8.19433198,18.3462117 8.46350492,18.6153846 8.79554656,18.6153846 L13.2044534,18.6153846 C13.5364951,18.6153846 13.805668,18.3462117 13.805668,18.01417 C13.805668,17.6821284 13.5364951,17.4129555 13.2044534,17.4129555 L11.6012146,17.4129555 L11.6012146,16.1704453 C14.0051822,15.8675742 15.8085291,13.823781 15.8097166,11.4008097 L15.8097166,9.19635628 C15.8097166,8.86431463 15.5405437,8.5951417 15.208502,8.5951417 Z" id="Icon"></path>
                </g>
            </g>
        </g>
    </g>
</svg>