<?xml version="1.0" encoding="UTF-8"?>
<svg width="32px" height="18px" viewBox="0 0 32 18" version="1.1" xmlns="http://www.w3.org/2000/svg" xmlns:xlink="http://www.w3.org/1999/xlink">
    <!-- Generator: Sketch 50 (54983) - http://www.bohemiancoding.com/sketch -->
    <title>facetime icon</title>
    <desc>Created with Sketch.</desc>
    <defs></defs>
    <g id="connection-interface" stroke="none" stroke-width="1" fill="none" fill-rule="evenodd">
        <g id="14_Офлайн-видеочат" transform="translate(-915.000000, -711.000000)" fill="#C7C7CC">
            <g id="Chat" transform="translate(371.000000, 0.000000)">
                <g id="Write" transform="translate(0.000000, 694.000000)">
                    <path d="M544.767704,20.7974845 L544.767704,23.1005951 C544.343713,23.1005951 544,22.7568825 544,22.3328916 L544,21.565188 C544,21.1411971 544.343713,20.7974845 544.767704,20.7974845 Z M545.535407,32.6774194 L545.535407,19.3225806 C545.535407,18.0451613 546.580568,17 547.857988,17 L563.82573,17 C565.103149,17 566.14831,18.0451613 566.14831,19.3225806 L566.14831,32.6774194 C566.14831,33.9548387 565.103149,35 563.82573,35 L547.857988,35 C546.580568,35 545.535407,33.9548387 545.535407,32.6774194 Z M567.122542,26 L567.122542,23.6530323 L573.630413,19.2981935 L573.630413,26 L573.630413,32.7018065 L567.122542,28.3469677 L567.122542,26 Z M574.791936,19.2984258 L575.943491,19.2984258 L575.943491,26.0002323 L575.943491,32.7020387 L574.791936,32.7020387 L574.791936,26.0002323 L574.791936,19.2984258 Z" id="facetime-icon"></path>
                </g>
            </g>
        </g>
    </g>
</svg>