<?xml version="1.0" encoding="UTF-8"?>
<svg width="16px" height="16px" viewBox="0 0 16 16" version="1.1" xmlns="http://www.w3.org/2000/svg" xmlns:xlink="http://www.w3.org/1999/xlink">
    <!-- Generator: Sketch 46.2 (44496) - http://www.bohemiancoding.com/sketch -->
    <title>Fill-2</title>
    <desc>Created with Sketch.</desc>
    <defs></defs>
    <g id="user-interface" stroke="none" stroke-width="1" fill="none" fill-rule="evenodd" opacity="0.4">
        <g id="03-1_Клиент_главная" transform="translate(-1018.000000, -1736.000000)" fill="#FFFFFF">
            <g id="Footer" transform="translate(0.000000, 1442.000000)">
                <g id="BTM" transform="translate(168.000000, 294.000000)">
                    <g id="icons" transform="translate(822.000000, 0.000000)">
                        <path d="M42.1544615,6.76861538 L40.7612308,6.76861538 C40.8627692,7.16246154 40.9230769,7.57415385 40.9230769,8 C40.9230769,10.7187692 38.7187692,12.9230769 36,12.9230769 C33.2812308,12.9230769 31.0769231,10.7187692 31.0769231,8 C31.0769231,7.57415385 31.1372308,7.16246154 31.2387692,6.76861538 L29.8455385,6.76861538 L29.8455385,13.5384615 C29.8455385,13.8775385 30.1212308,14.1532308 30.4615385,14.1532308 L41.5384615,14.1532308 C41.8787692,14.1532308 42.1544615,13.8775385 42.1544615,13.5384615 L42.1544615,6.76861538 L42.1544615,6.76861538 L42.1544615,6.76861538 Z M42.1544615,2.46153846 C42.1544615,2.12184615 41.8787692,1.84615385 41.5384615,1.84615385 L39.6923077,1.84615385 C39.3526154,1.84615385 39.0769231,2.12184615 39.0769231,2.46153846 L39.0769231,4.30769231 C39.0769231,4.64738462 39.3526154,4.92307692 39.6923077,4.92307692 L41.5384615,4.92307692 C41.8787692,4.92307692 42.1544615,4.64738462 42.1544615,4.30769231 L42.1544615,2.46153846 L42.1544615,2.46153846 L42.1544615,2.46153846 Z M36,4.92307692 C34.3003077,4.92307692 32.9230769,6.30030769 32.9230769,8 C32.9230769,9.69907692 34.3003077,11.0769231 36,11.0769231 C37.6990769,11.0769231 39.0769231,9.69907692 39.0769231,8 C39.0769231,6.30030769 37.6990769,4.92307692 36,4.92307692 L36,4.92307692 L36,4.92307692 Z M42.1544615,16 L29.8455385,16 C28.8264615,16 28,15.1729231 28,14.1532308 L28,1.84615385 C28,0.826461538 28.8264615,0 29.8455385,0 L42.1544615,0 C43.1735385,0 44,0.826461538 44,1.84615385 L44,14.1532308 C44,15.1729231 43.1735385,16 42.1544615,16 L42.1544615,16 L42.1544615,16 Z" id="Fill-2"></path>
                    </g>
                </g>
            </g>
        </g>
    </g>
</svg>