<?xml version="1.0" encoding="UTF-8"?>
<svg width="16px" height="18px" viewBox="0 0 16 18" version="1.1" xmlns="http://www.w3.org/2000/svg" xmlns:xlink="http://www.w3.org/1999/xlink">
    <!-- Generator: Sketch 46.2 (44496) - http://www.bohemiancoding.com/sketch -->
    <title>hot-coffee-rounded-cup-on-a-plate-from-side-view</title>
    <desc>Created with Sketch.</desc>
    <defs></defs>
    <g id="user-interface" stroke="none" stroke-width="1" fill="none" fill-rule="evenodd">
        <g id="03-1_Клиент_главная" transform="translate(-832.000000, -967.000000)" fill-rule="nonzero" fill="#007AFF">
            <g id="Group-Copy-8" transform="translate(809.000000, 914.000000)">
                <g id="hot-coffee-rounded-cup-on-a-plate-from-side-view" transform="translate(23.000000, 53.000000)">
                    <path d="M1.64186829,17.6634827 L3.74110493,17.6634827 C3.77028076,17.8523145 3.92185276,18 4.11327468,18 L8.88601371,18 C9.07814724,18 9.22900763,17.8530492 9.25818346,17.6634827 L11.3574201,17.6634827 C11.7125113,17.6634827 12,17.3666422 12,17 L1,17 C1,17.3666422 1.28748868,17.6634827 1.64186829,17.6634827 Z" id="Shape"></path>
                    <path d="M15.409635,9.85748939 C14.854253,9.30351728 14.0721393,9.29442086 13.557377,9.36446331 C13.5721477,8.9223772 13.5802717,8.47028502 13.5802717,8 L0,8 C0,12.5209218 0.555382005,15.7828987 4.07009339,17 L9.5101783,17 C10.902326,16.5187993 11.8255009,15.7101273 12.4377505,14.6349303 C13.7715535,14.6030928 15.9170119,13.9563372 15.9975128,11.6876895 C16.0322242,10.6943602 15.696927,10.143117 15.409635,9.85748939 Z M12.9968252,13.3377805 C13.25236,12.5291086 13.4037607,11.6194663 13.4872157,10.6197696 C13.8476231,10.5469982 14.4687352,10.5006064 14.7826146,10.8153426 C14.8402208,10.8735597 15.019686,11.0536689 14.9990068,11.6349303 C14.9569101,12.810188 13.7722921,13.2049727 12.9968252,13.3377805 Z" id="Shape"></path>
                    <path d="M5.42389084,7 C5.42389084,7 7.58717792,6.7812234 6.59577436,4.26912319 C5.79968471,2.2524626 5.98140083,1.06919616 7,0 C7,0 3.66359324,1.17049739 5.60931545,4.79265475 C6.32320019,6.37091086 5.42389084,7 5.42389084,7 Z" id="Shape"></path>
                    <path d="M7,8 C7,8 8.61826708,7.43350108 7.73756966,5.27198658 C7.41784072,4.33453151 7.85876655,4 7.85876655,4 C7.85876655,4 6.8170504,4.05463695 7.25682199,5.54133717 C7.6088701,6.73664031 7.50440993,7.41528876 7,8 Z" id="Shape"></path>
                </g>
            </g>
        </g>
    </g>
</svg>