<?xml version="1.0" encoding="UTF-8"?>
<svg width="22px" height="22px" viewBox="0 0 22 22" version="1.1" xmlns="http://www.w3.org/2000/svg" xmlns:xlink="http://www.w3.org/1999/xlink">
    <!-- Generator: Sketch 46.2 (44496) - http://www.bohemiancoding.com/sketch -->
    <title>Group 11</title>
    <desc>Created with Sketch.</desc>
    <defs></defs>
    <g id="user-interface" stroke="none" stroke-width="1" fill="none" fill-rule="evenodd">
        <g id="03-2_Клиент_фильтр-категории" transform="translate(-564.000000, -446.000000)">
            <g id="Group-3-Copy-2" transform="translate(416.000000, 397.000000)">
                <g id="Group-11" transform="translate(148.000000, 49.000000)">
                    <circle id="Oval-Copy-3" fill="#EFEFF4" cx="11" cy="11" r="11"></circle>
                    <path d="M11.75,12.5294118 L12.875,12.5294118 L12.875,7.25882353 L11.75,7.25882353 L11.75,12.5294118 Z M16.25,5 L13.625,6.75698824 L13.625,13.0312471 L16.25,14.7882353 C16.664,14.7882353 17,14.4509176 17,14.0352941 L17,5.75294118 C17,5.33731765 16.664,5 16.25,5 L16.25,5 Z M5,9.89411765 C5,11.2994824 5.960375,12.2086588 7.257125,12.4578824 L7.25,12.5294118 L7.25,15.5411765 C7.25,15.9568 7.586,16.2941176 8,16.2941176 L9.125,16.2941176 C9.539,16.2941176 9.875,15.9568 9.875,15.5411765 L9.875,12.5294118 L11,12.5294118 L11,7.25882353 L8,7.25882353 C6.34325,7.25882353 5,8.23087059 5,9.89411765 L5,9.89411765 Z" id="Fill-179" fill="#9013FE"></path>
                </g>
            </g>
        </g>
    </g>
</svg>