<?xml version="1.0" encoding="UTF-8"?>
<svg width="13px" height="22px" viewBox="0 0 13 22" version="1.1" xmlns="http://www.w3.org/2000/svg" xmlns:xlink="http://www.w3.org/1999/xlink">
    <!-- Generator: Sketch 49.3 (51167) - http://www.bohemiancoding.com/sketch -->
    <title>Group 3</title>
    <desc>Created with Sketch.</desc>
    <defs></defs>
    <g id="connection-interface" stroke="none" stroke-width="1" fill="none" fill-rule="evenodd">
        <g id="02-4_Онлайн-видеочат-Продления" transform="translate(-675.000000, -587.000000)" fill="#FFFFFF">
            <g id="Decline" transform="translate(583.000000, 576.000000)">
                <g id="mute" transform="translate(76.000000, 0.000000)">
                    <g id="Group-3" transform="translate(15.888889, 11.611111)">
                        <path d="M9.44777469,15.3274882 C9.34461844,15.4205914 9.23506241,15.5093654 9.11871467,15.5933542 L8.78339777,15.0125683 C8.8970495,14.9234038 9.00317465,14.8286967 9.1022659,14.7290494 L9.44777469,15.3274882 Z M9.88490492,14.8623977 L9.51796454,14.2268384 C10.8419302,12.3044654 10.3739785,9.23842165 10.4988891,7.94444444 L11.1109115,7.94444444 C10.9660112,9.37265458 11.5259736,12.8054582 9.88490492,14.8623977 Z M8.59730916,15.9124756 C7.87984532,16.2817624 6.9578186,16.5 5.77347269,16.5 C-0.66617032,16.5 0.837139141,10.4327528 0.623488968,7.94444444 L1.23315817,7.94444444 C1.42191999,10.2550165 0.0937327354,15.8888889 5.78321452,15.8888889 C6.82566094,15.8888889 7.6380853,15.6877604 8.27094247,15.3471919 L8.59730916,15.9124756 Z M5.5,20.1666667 L5.5,16.5 L6.11111111,16.5 L6.11111111,20.1666667 L9.16666667,20.1666667 L9.16666667,20.7777778 L2.44444444,20.7777778 L2.44444444,20.1666667 L5.5,20.1666667 Z" id="Combined-Shape"></path>
                        <path d="M2.52962554,3.22213997 C2.52997393,3.22062145 2.53032335,3.21910333 2.53067379,3.21758559 L3.248395,4.46708518 L12.4342519,20.377456 L11.9050141,20.6830116 L0.319637528,0.616550658 L0.848875275,0.310995103 L2.52962554,3.22213995 Z M8.77932646,12.8691058 L2.80292371,2.46463022 C3.35696788,1.36522371 4.49523029,0.611111111 5.80555556,0.611111111 C7.66184596,0.611111111 9.16666667,2.11530177 9.16666667,3.97776687 L9.16666667,11.3000109 C9.16666667,11.8666349 9.02656609,12.4005648 8.77932646,12.8691058 Z M7.52240057,14.1939346 C7.01953038,14.4941827 6.43222046,14.6666667 5.80555556,14.6666667 C3.94926515,14.6666667 2.44444444,13.162476 2.44444444,11.3000109 L2.44444444,5.35358818 L7.52240057,14.1939346 Z" id="Combined-Shape"></path>
                    </g>
                </g>
            </g>
        </g>
    </g>
</svg>