<?xml version="1.0" encoding="UTF-8"?>
<svg width="16px" height="15px" viewBox="0 0 16 15" version="1.1" xmlns="http://www.w3.org/2000/svg" xmlns:xlink="http://www.w3.org/1999/xlink">
    <!-- Generator: Sketch 46.2 (44496) - http://www.bohemiancoding.com/sketch -->
    <title>Fill 179</title>
    <desc>Created with Sketch.</desc>
    <defs></defs>
    <g id="user-interface" stroke="none" stroke-width="1" fill="none" fill-rule="evenodd">
        <g id="03-1_Клиент_главная" transform="translate(-512.000000, -969.000000)" fill="#9013FE">
            <path d="M521,979 L522.5,979 L522.5,972 L521,972 L521,979 Z M527,969 L523.5,971.3335 L523.5,979.6665 L527,982 C527.552,982 528,981.552 528,981 L528,970 C528,969.448 527.552,969 527,969 L527,969 Z M515.0095,978.905 L515,979 L515,983 C515,983.552 515.448,984 516,984 L517.5,984 C518.052,984 518.5,983.552 518.5,983 L518.5,979 L520,979 L520,972 L516,972 C513.791,972 512,973.291 512,975.5 C512,977.3665 513.2805,978.574 515.0095,978.905 Z" id="Fill-179"></path>
        </g>
    </g>
</svg>