<?xml version="1.0" encoding="UTF-8"?>
<svg width="24px" height="20px" viewBox="0 0 24 20" version="1.1" xmlns="http://www.w3.org/2000/svg" xmlns:xlink="http://www.w3.org/1999/xlink">
    <!-- Generator: Sketch 49.3 (51167) - http://www.bohemiancoding.com/sketch -->
    <title>Speaker icon</title>
    <desc>Created with Sketch.</desc>
    <defs></defs>
    <g id="connection-interface" stroke="none" stroke-width="1" fill="none" fill-rule="evenodd">
        <g id="03-4_Онлайн-аудио-чат-Продления" transform="translate(-710.000000, -588.000000)" fill="#FFFFFF">
            <g id="Group-6" transform="translate(340.000000, 100.000000)">
                <g id="Decline" transform="translate(205.000000, 475.000000)">
                    <g id="Group" transform="translate(152.000000, 0.000000)">
                        <path d="M18.0464781,19.6610659 L22.7064797,16.1563158 L22.7064797,22.2535922 L22.7064797,22.6741901 L22.7064797,29.6126622 L18.0464781,26.1086084 L13,26.1086084 L13,22.6741901 L13,22.2535922 L13,19.6610659 L18.0464781,19.6610659 Z M25.677544,18.3244142 C25.7506612,18.3863898 27.4727449,19.8863365 27.4727449,22.8848372 C27.4727449,25.8826415 25.7506612,27.3825882 25.677544,27.4452601 C25.5981597,27.5121101 25.5013664,27.5455351 25.4052696,27.5455351 C25.286193,27.5455351 25.1678128,27.4953976 25.0849467,27.3972117 C24.9345342,27.2203377 24.9554248,26.9550268 25.1322988,26.8046144 C25.1921852,26.7523878 26.6315491,25.4773635 26.6315491,22.8848372 C26.6315491,20.2923109 25.1928816,19.0165902 25.1309061,18.9636673 C24.9561212,18.8118621 24.9359269,18.5472476 25.0863394,18.37107 C25.2374482,18.1955887 25.5013664,18.1740018 25.677544,18.3244142 Z M29.1072272,15.6261814 C29.2235183,15.7250637 31.9504409,18.1010239 31.9504409,22.8849765 C31.9504409,27.668929 29.2235183,30.0441929 29.1072272,30.1430751 C29.0278428,30.2106215 28.9310496,30.2433501 28.8349527,30.2433501 C28.7158762,30.2433501 28.597496,30.1932126 28.5146299,30.0957231 C28.3642174,29.9188491 28.385108,29.6535382 28.5619819,29.5031257 C28.5870507,29.4815387 31.1092452,27.2622583 31.1092452,22.8849765 C31.1092452,20.5981496 30.4184619,18.9220253 29.838399,17.9192754 C29.2081985,16.8280886 28.5675528,16.2717017 28.5612856,16.2661308 C28.3858043,16.115022 28.3649137,15.8497111 28.5160226,15.6735335 C28.666435,15.4973559 28.9310496,15.4757689 29.1072272,15.6261814 Z M32.4739599,13.100157 C32.6299433,13.2331606 36.2983366,16.4287295 36.2983366,22.8846283 C36.2983366,29.340527 32.6299433,32.536096 32.4739599,32.6690996 C32.3945756,32.7366459 32.2977824,32.7693746 32.2016855,32.7693746 C32.0826089,32.7693746 31.9642287,32.7192371 31.8813626,32.6217475 C31.7309501,32.4448736 31.7518407,32.1795627 31.9287147,32.0284538 C31.9370709,32.0214903 32.8228333,31.2534117 33.6960614,29.7471978 C34.499654,28.3607568 35.4571409,26.0446831 35.4571409,22.8846283 C35.4571409,19.7245734 34.499654,17.4084997 33.6960614,16.0220587 C32.8228333,14.5158448 31.9370709,13.7477663 31.9287147,13.7401064 C31.7525371,13.5889975 31.7316465,13.3236866 31.882059,13.147509 C32.0324714,12.9713314 32.297086,12.9497445 32.4739599,13.100157 Z" id="Speaker-icon"></path>
                    </g>
                </g>
            </g>
        </g>
    </g>
</svg>