<?xml version="1.0" encoding="UTF-8"?>
<svg width="20px" height="19px" viewBox="0 0 20 19" version="1.1" xmlns="http://www.w3.org/2000/svg" xmlns:xlink="http://www.w3.org/1999/xlink">
    <!-- Generator: Sketch 50 (54983) - http://www.bohemiancoding.com/sketch -->
    <title>UI Elements / Icons / Content / Icons / Icon 24px Copy 2</title>
    <desc>Created with Sketch.</desc>
    <defs></defs>
    <g id="connection-interface" stroke="none" stroke-width="1" fill="none" fill-rule="evenodd">
        <g id="04-4_Офлайн-видео-чат-Оставить-отзыв" transform="translate(-618.000000, -482.000000)">
            <g id="Dialog" transform="translate(472.000000, 284.000000)">
                <g id="Buttons" transform="translate(0.000000, 184.000000)">
                    <g id="UI-Elements-/-Icons-/-Content-/-Icons-/-Icon-24px-Copy-2" transform="translate(144.000000, 12.000000)">
                        <g id="Star">
                            <polygon id="Shape" points="0 0 24 0 24 24 0 24"></polygon>
                            <path d="M22,9.24 L14.81,8.62 L12,2 L9.19,8.63 L2,9.24 L7.46,13.97 L5.82,21 L12,17.27 L18.18,21 L16.55,13.97 L22,9.24 Z M12,15.4 L8.24,17.67 L9.24,13.39 L5.92,10.51 L10.3,10.13 L12,6.1 L13.71,10.14 L18.09,10.52 L14.77,13.4 L15.77,17.68 L12,15.4 Z" id="Shape" fill="#D8D8D8" fill-rule="nonzero"></path>
                        </g>
                    </g>
                </g>
            </g>
        </g>
    </g>
</svg>