<?xml version="1.0" encoding="UTF-8"?>
<svg width="22px" height="22px" viewBox="0 0 22 22" version="1.1" xmlns="http://www.w3.org/2000/svg" xmlns:xlink="http://www.w3.org/1999/xlink">
    <!-- Generator: Sketch 46.2 (44496) - http://www.bohemiancoding.com/sketch -->
    <title>Group 8</title>
    <desc>Created with Sketch.</desc>
    <defs></defs>
    <g id="user-interface" stroke="none" stroke-width="1" fill="none" fill-rule="evenodd">
        <g id="03-2_Клиент_фильтр-категории" transform="translate(-586.000000, -327.000000)">
            <g id="Group-3-Copy" transform="translate(416.000000, 280.000000)">
                <g id="Group-8" transform="translate(170.000000, 47.000000)">
                    <circle id="Oval-Copy-3" fill="#EFEFF4" cx="11" cy="11" r="11"></circle>
                    <g id="hot-coffee-rounded-cup-on-a-plate-from-side-view" transform="translate(5.000000, 4.000000)" fill-rule="nonzero" fill="#007AFF">
                        <path d="M1.50327273,13.1886364 L3.11236364,13.1886364 C3.13472727,13.3521818 3.25090909,13.4800909 3.39763636,13.4800909 L7.056,13.4800909 C7.20327273,13.4800909 7.31890909,13.3528182 7.34127273,13.1886364 L8.95036364,13.1886364 C9.22254545,13.1886364 9.44290909,12.9315455 9.44290909,12.614 L1.01127273,12.614 C1.01127273,12.9315455 1.23163636,13.1886364 1.50327273,13.1886364 Z" id="Shape"></path>
                        <path d="M11.3809091,7.28254545 C10.9707273,6.895 10.3930909,6.88863636 10.0129091,6.93763636 C10.0238182,6.62836364 10.0298182,6.31209091 10.0298182,5.98309091 L0,5.98309091 C0,9.14581818 0.410181818,11.4278182 3.006,12.2792727 L7.02381818,12.2792727 C8.052,11.9426364 8.73381818,11.3769091 9.186,10.6247273 C10.1710909,10.6024545 11.7556364,10.15 11.8150909,8.56290909 C11.8407273,7.868 11.5930909,7.48236364 11.3809091,7.28254545 Z M9.59890909,9.71727273 C9.78763636,9.15154545 9.89945455,8.51518182 9.96109091,7.81581818 C10.2272727,7.76490909 10.686,7.73245455 10.9178182,7.95263636 C10.9603636,7.99336364 11.0929091,8.11936364 11.0776364,8.526 C11.0465455,9.34818182 10.1716364,9.62436364 9.59890909,9.71727273 Z" id="Shape"></path>
                        <path d="M4.086,5.53890909 C4.086,5.53890909 5.99509091,5.37536364 5.12018182,3.49745455 C4.41763636,1.98990909 4.578,1.10536364 5.47690909,0.306090909 C5.47690909,0.306090909 2.53254545,1.18109091 4.24963636,3.88881818 C4.87963636,5.06863636 4.086,5.53890909 4.086,5.53890909 Z" id="Shape"></path>
                        <path d="M5.37272727,5.38872727 C5.37272727,5.38872727 6.90218182,5.01263636 6.06981818,3.57763636 C5.76763636,2.95527273 6.18436364,2.73318182 6.18436364,2.73318182 C6.18436364,2.73318182 5.19981818,2.76945455 5.61545455,3.75645455 C5.94818182,4.55 5.84945455,5.00054545 5.37272727,5.38872727 Z" id="Shape"></path>
                    </g>
                </g>
            </g>
        </g>
    </g>
</svg>