<?xml version="1.0" encoding="UTF-8"?>
<svg width="50px" height="50px" viewBox="0 0 50 50" version="1.1" xmlns="http://www.w3.org/2000/svg" xmlns:xlink="http://www.w3.org/1999/xlink">
    <!-- Generator: Sketch 46.2 (44496) - http://www.bohemiancoding.com/sketch -->
    <title>Group 6</title>
    <desc>Created with Sketch.</desc>
    <defs></defs>
    <g id="user-interface" stroke="none" stroke-width="1" fill="none" fill-rule="evenodd">
        <g id="02-1_allavin_авторизация" transform="translate(-706.000000, -628.000000)">
            <g id="Center" transform="translate(190.000000, 150.000000)">
                <g id="Group">
                    <g id="Group-10" transform="translate(336.000000, 328.000000)">
                        <g id="Group-9" transform="translate(0.000000, 115.000000)">
                            <g id="icons" transform="translate(0.000000, 35.000000)">
                                <g id="Group-6" transform="translate(180.000000, 0.000000)">
                                    <rect id="Mask" fill="#1DCAFF" x="0" y="0" width="50" height="50" rx="25"></rect>
                                    <path d="M31.362,21.239 C31.368,21.38 31.372,21.521 31.372,21.664 C31.372,26.001 28.07,31.003 22.032,31.003 C20.178,31.003 18.453,30.46 17,29.529 C17.257,29.559 17.518,29.574 17.783,29.574 C19.321,29.574 20.736,29.05 21.86,28.169 C20.423,28.143 19.211,27.194 18.793,25.89 C18.994,25.928 19.199,25.948 19.411,25.948 C19.71,25.948 20,25.908 20.276,25.833 C18.774,25.532 17.643,24.205 17.643,22.615 L17.643,22.573 C18.085,22.819 18.592,22.967 19.13,22.984 C18.249,22.395 17.669,21.39 17.669,20.252 C17.669,19.65 17.831,19.086 18.114,18.601 C19.733,20.587 22.152,21.894 24.88,22.031 C24.824,21.791 24.795,21.54 24.795,21.283 C24.795,19.47 26.265,18 28.077,18 C29.022,18 29.875,18.399 30.473,19.037 C31.221,18.89 31.924,18.617 32.558,18.241 C32.313,19.007 31.792,19.65 31.115,20.057 C31.779,19.977 32.411,19.801 33,19.54 C32.56,20.198 32.003,20.776 31.362,21.239" id="Path" fill="#FFFFFF"></path>
                                </g>
                            </g>
                        </g>
                    </g>
                </g>
            </g>
        </g>
    </g>
</svg>