<?xml version="1.0" encoding="UTF-8"?>
<svg width="11px" height="13px" viewBox="0 0 11 13" version="1.1" xmlns="http://www.w3.org/2000/svg" xmlns:xlink="http://www.w3.org/1999/xlink">
    <!-- Generator: Sketch 49.3 (51167) - http://www.bohemiancoding.com/sketch -->
    <title>001-user</title>
    <desc>Created with Sketch.</desc>
    <defs></defs>
    <g id="connection-interface" stroke="none" stroke-width="1" fill="none" fill-rule="evenodd">
        <g id="07-2_Онлайн-конф.-" transform="translate(-355.000000, -735.000000)" fill="#4A4A4A" fill-rule="nonzero">
            <g id="Like-Comment" transform="translate(355.000000, 735.000000)">
                <g id="001-user" transform="translate(5.500000, 6.500000) scale(-1, 1) translate(-5.500000, -6.500000) ">
                    <path d="M11,12.0714286 C11,12.3864464 9.0587619,13 5.5,13 C1.9412381,13 0,12.3864464 0,12.0714286 L0,11.31975 C0,10.7229107 0.367190476,10.1743571 0.958309524,9.88882143 L3.2947619,8.75921429 C3.68578571,8.57001786 3.92857143,8.20717857 3.92857143,7.81276786 L3.92857143,6.87978571 L3.86754762,6.81525 C3.8612619,6.80851786 3.21933333,6.12021429 2.97445238,5.17516071 L2.95061905,5.08323214 L2.86130952,5.03216071 C2.70966667,4.94533929 2.61904762,4.79978571 2.61904762,4.64285714 L2.61904762,3.71428571 C2.61904762,3.58405357 2.68138095,3.46264286 2.79452381,3.371875 L2.88095238,3.30292857 L2.88095238,1.85714286 L2.87859524,1.82673214 C2.87780952,1.82046429 2.7887619,1.17696429 3.29895238,0.661142857 C3.73292857,0.222392857 4.47359524,0 5.5,0 C6.5227381,0 7.26183333,0.220767857 7.69633333,0.6565 C8.2062619,1.16744643 8.12192857,1.82116071 8.12140476,1.82673214 L8.11904762,3.30292857 L8.20547619,3.37210714 C8.31861905,3.46264286 8.38095238,3.58405357 8.38095238,3.71428571 L8.38095238,4.64285714 C8.38095238,4.84551786 8.23114286,5.022875 8.00852381,5.08369643 L7.87809524,5.11921429 L7.83619048,5.234125 C7.66097619,5.71721429 7.41138095,6.16339286 7.09395238,6.56035714 C7.01616667,6.65808929 6.94047619,6.74467857 6.8747381,6.81083929 L6.80952381,6.87676786 L6.80952381,7.83435714 C6.80952381,8.24525 7.06697619,8.61458929 7.48157143,8.79844643 L9.98354762,9.90716071 C10.6105476,10.1850357 11,10.7435714 11,11.3650179 L11,12.0714286 Z" id="Shape"></path>
                </g>
            </g>
        </g>
    </g>
</svg>