<?xml version="1.0" encoding="UTF-8"?>
<svg width="16px" height="16px" viewBox="0 0 16 16" version="1.1" xmlns="http://www.w3.org/2000/svg" xmlns:xlink="http://www.w3.org/1999/xlink">
    <!-- Generator: Sketch 46.2 (44496) - http://www.bohemiancoding.com/sketch -->
    <title>video-conference</title>
    <desc>Created with Sketch.</desc>
    <defs></defs>
    <g id="user-interface" stroke="none" stroke-width="1" fill="none" fill-rule="evenodd">
        <g id="03-1_Клиент_главная" transform="translate(-193.000000, -969.000000)" fill-rule="nonzero" fill="#9013FE">
            <g id="Group-Copy-6" transform="translate(170.000000, 914.000000)">
                <g id="video-conference" transform="translate(23.000000, 55.000000)">
                    <path d="M2.33334288,9 L13.6666571,9 C13.8506566,9 14,8.84491207 14,8.65383492 L14,0.346132628 C13.9999688,0.155055475 13.8506254,0 13.6666259,0 L2.33334288,0 C2.14934336,0 2,0.155087927 2,0.34616508 L2,8.65386737 C2,8.84491207 2.14934336,9 2.33334288,9 Z M4.72199291,8.3070208 L4.72199291,8.3070208 C4.85130507,7.91516336 5.19464793,7.6015476 5.64399051,7.49562439 L6.95798709,7.18548099 C7.07798678,7.15708553 7.17267403,7.06294238 7.20529894,6.93968983 L7.36129854,6.34916148 C7.39529845,6.21967815 7.35461106,6.08052414 7.25598631,5.9940072 C6.9713308,5.74133623 6.7826438,5.37436944 6.75198763,5.01162141 C6.73730016,4.83229187 6.55464439,4.73055496 6.38198859,4.73055496 L6.32130125,4.1836096 C6.41798849,4.1836096 6.50930076,4.14067565 6.57264434,4.06522484 C6.63598793,3.98977403 6.6646441,3.89004915 6.65130039,3.79038917 C6.62330046,3.58198267 6.57930057,3.2054101 6.57930057,3.08559746 C6.57930057,2.74290474 6.57930057,2.38846441 7.68395395,2.37807978 C7.74726628,2.37739829 7.80926612,2.35802447 7.86260973,2.32200279 C8.22529629,2.07692557 8.63929521,2.07692557 8.83791969,2.07692557 C9.22991867,2.07692557 9.50060547,2.18077185 9.6419176,2.38499205 C9.78122974,2.58509085 9.73257361,2.63422312 9.68857373,2.6785525 L9.52926164,2.82880508 C9.46391806,2.88974987 9.42457442,2.97555286 9.41991818,3.06628854 L9.38126203,3.81949858 C9.37726204,3.91435567 9.40257447,3.97870791 9.46460556,4.04724645 C9.5266054,4.11649894 9.60591769,4.12824655 9.69726121,4.12896049 L9.61526142,4.69596117 C9.44257437,4.69596117 9.29794974,4.83303826 9.28326228,5.0123678 C9.25257486,5.38066512 9.05060664,5.76421486 8.75526366,6.01415987 C8.65326392,6.10070926 8.60926404,6.24190774 8.64457645,6.37418194 L8.79457606,6.93981964 C8.82723222,7.06235825 8.92188822,7.15718288 9.04188791,7.18557835 L10.3558845,7.49572175 C10.8052271,7.60164495 11.1485699,7.91526072 11.2778821,8.30779965 L4.72199291,8.3070208 Z M2.66668576,0.692297707 L13.3333142,0.692297707 L13.3333142,8.30770229 L11.9646616,8.30770229 C11.8266619,7.5883721 11.2653196,6.99923918 10.5033216,6.81990964 L9.38401202,6.5554586 L9.34132463,6.39482139 C9.62466764,6.09853497 9.82532337,5.71982058 9.91001065,5.32591866 C10.1046664,5.23381999 10.2486973,5.04829213 10.2780097,4.8253796 L10.3580095,4.22307118 C10.3820094,4.04585102 10.3293533,3.86515849 10.2153536,3.72739991 C10.1706662,3.67408134 10.1186664,3.62838898 10.061354,3.59239975 L10.079354,3.24555318 L10.1453538,3.18324541 C10.3000409,3.02815749 10.6140088,2.59962933 10.1840099,1.97999156 C9.91001065,1.5853757 9.45735558,1.38462787 8.83870094,1.38462787 C8.60935779,1.38462787 8.0880154,1.38462787 7.58401671,1.687859 C6.42936347,1.72108981 5.91270856,2.15445331 5.91270856,3.08634385 C5.91270856,3.19986082 5.93336476,3.40690434 5.9540522,3.5841245 C5.89139612,3.62150916 5.83539626,3.66856451 5.78739639,3.72535544 C5.67139669,3.86379551 5.61805308,4.04520198 5.64205302,4.22453152 L5.72139656,4.82612599 C5.75208398,5.05666473 5.90473983,5.2463789 6.12805175,5.33497276 C6.21073903,5.71229172 6.40073854,6.07643519 6.66605035,6.36584179 L6.61536298,6.55623745 L5.4960534,6.82072094 C4.73474288,7.00001803 4.17336934,7.58846946 4.0353697,8.30779965 L2.66668576,8.30779965 L2.66668576,0.692297707 Z" id="Shape"></path>
                    <path d="M14.7359087,13.9498071 L14.7360025,13.9497415 L13.8546604,13.7180782 L13.8260042,13.5983914 C14.0540038,13.3288995 14.2166597,12.989459 14.2873471,12.6360091 C14.4500343,12.5428976 14.5673465,12.3714385 14.5913465,12.1670393 L14.6566901,11.6197219 C14.6780026,11.4433414 14.6266902,11.266272 14.5153466,11.1325759 C14.4853467,11.0961909 14.4513468,11.0646616 14.4146906,11.0366756 L14.4286906,10.735031 L14.4746905,10.6860145 C14.6046902,10.5411306 14.8680335,10.1421749 14.5106904,9.56966024 C14.3486907,9.31001092 14.0166914,9.00062337 13.3526927,9.00062337 C13.056037,9.00062337 12.6740377,9.03353066 12.3026947,9.27641465 C11.3460091,9.31348866 10.899385,9.72996433 10.899385,10.5824698 C10.899385,10.6755485 10.9167287,10.8638385 10.9326974,11.0255206 C10.8920412,11.0549173 10.8546975,11.0892354 10.8220101,11.1284092 C10.7093541,11.2627943 10.6566979,11.4412745 10.6780104,11.6183439 L10.743354,12.1663831 C10.7680102,12.3784596 10.8933537,12.55484 11.0786659,12.6458518 C11.1480095,12.9831925 11.3013217,13.3086892 11.514665,13.5704711 L11.4800088,13.7174548 L10.5980106,13.949151 C10.508667,13.9729374 10.4213234,14.0044339 10.3340111,14.0464292 C10.247355,14.0051557 10.1593239,13.9729374 10.0700116,13.949151 L9.18866955,13.7174548 L9.16001336,13.5977681 C9.38801291,13.3282761 9.55066885,12.9888356 9.62132496,12.6353858 C9.78401214,12.542307 9.90132441,12.3708151 9.92532436,12.1664159 L9.99066799,11.6190985 C10.0119804,11.4427181 9.96066805,11.2656487 9.84932451,11.1319525 C9.81932457,11.0955675 9.78532464,11.0640382 9.74866846,11.0360523 L9.76266843,10.7344076 L9.80866834,10.6853912 C9.93866809,10.5405072 10.2020113,10.1415515 9.84466827,9.56903687 C9.68266859,9.30938755 9.35066924,9 8.68667053,9 C8.38935861,9 8.00801561,9.03359627 7.63532884,9.27648027 C6.67867446,9.31355428 6.23201908,9.73002995 6.23201908,10.5825354 C6.23201908,10.6756469 6.24936279,10.8639042 6.26536276,11.0255862 C6.22467534,11.054983 6.18736292,11.0892682 6.15467548,11.1284748 C6.0419882,11.2628599 5.98933205,11.4413401 6.01067576,11.6184095 L6.07598813,12.1664487 C6.10064433,12.3785252 6.22598784,12.5549056 6.41133123,12.6458846 C6.48067484,12.9832581 6.63398704,13.308722 6.84733038,13.5705039 L6.81267419,13.7174876 L5.93067592,13.9491838 C5.84136359,13.9729702 5.75398876,14.0044667 5.66667643,14.0464948 C5.58002035,14.0051885 5.49202052,13.973003 5.40267695,13.9491838 L4.52133492,13.7174876 L4.49267873,13.5978009 C4.72067828,13.3283089 4.88336546,12.9888684 4.95402157,12.6354186 C5.11670876,12.5423398 5.23402103,12.3708479 5.25802098,12.1664815 L5.32333335,11.6191641 C5.34464581,11.4427837 5.29333341,11.2657143 5.18202113,11.1320182 C5.15202119,11.0956331 5.11802125,11.0641038 5.08136508,11.0361507 L5.09536505,10.7344732 L5.14136496,10.6854568 C5.2713647,10.5405728 5.53467669,10.1416171 5.17736489,9.56910249 C5.0153652,9.30945317 4.68336585,9.00006562 4.01936715,9.00006562 C3.72202398,9.00006562 3.34068098,9.03366189 2.96802545,9.27654588 C2.01133982,9.3136199 1.56471569,9.73009557 1.56471569,10.582601 C1.56471569,10.6757125 1.58205941,10.8639698 1.59802813,11.0256518 C1.55737196,11.0550486 1.52002828,11.0893338 1.48734085,11.1285404 C1.37468482,11.2629255 1.32202867,11.4414057 1.34334113,11.6184751 L1.40868475,12.1665143 C1.43334095,12.3785908 1.55868446,12.5549712 1.74399659,12.6459502 C1.81334021,12.9833237 1.96665241,13.3087876 2.17999574,13.5705695 L2.14530831,13.7175532 L1.26399753,13.9492494 C0.519998984,14.1452495 0,14.8444719 0,15.6500607 C0,15.8432393 0.149343458,16 0.333343099,16 L15.6666569,15.9992782 C15.8506565,15.9992782 16,15.8424847 16,15.6493061 C15.9999063,14.8436189 15.4799073,14.1450855 14.7359087,13.9498071 Z M0.723498587,15.2991043 L0.723373587,15.2992356 C0.832717124,14.9730499 1.09137287,14.7161893 1.42405972,14.6363981 L2.49940137,14.3543404 C2.61871364,14.3228439 2.71271345,14.2248438 2.74208839,14.0995468 L2.87008814,13.5620064 C2.90008809,13.4388091 2.86274441,13.3086564 2.77474458,13.2218441 C2.54743252,12.9978909 2.39674532,12.6696054 2.37208912,12.3434525 C2.36008914,12.1838702 2.21477692,12.0564734 2.06208972,12.0270767 L2.01408982,11.6204437 C2.08940217,11.6071233 2.15808953,11.5672277 2.20940193,11.5063345 C2.27271431,11.4307428 2.30208925,11.3306758 2.29005803,11.230576 C2.28940178,11.2284762 2.23074564,10.7497293 2.23074564,10.5894252 C2.23074564,10.2674391 2.23074564,9.98958084 3.07474399,9.98049279 C3.14274386,9.97977099 3.21005623,9.95739535 3.26543112,9.91540001 C3.54274308,9.70680128 3.8640862,9.70680128 4.0180859,9.70680128 C4.46077254,9.70680128 4.57877231,9.89719109 4.61808473,9.95949512 C4.72542827,10.132365 4.68742834,10.1750493 4.66077215,10.2051679 L4.5307724,10.3416527 C4.47208502,10.4032678 4.43742883,10.4851259 4.43342884,10.5719053 L4.4014289,11.2571184 C4.39742891,11.3522969 4.39411642,11.4020023 4.4561163,11.4712946 C4.51811618,11.5405869 4.56877233,11.5370764 4.6594284,11.5377653 L4.60211601,12.0228115 C4.4521163,12.0480087 4.33411653,12.1781943 4.32142906,12.3412543 C4.29611661,12.6723285 4.13474192,13.0159685 3.89942988,13.2371659 C3.80743006,13.3239781 3.76877389,13.4569196 3.79877383,13.5829385 L3.92146109,14.0973814 C3.95146103,14.2219566 4.04477335,14.3206457 4.16414812,14.3514532 L5.23880227,14.6335438 C5.3234896,14.6559194 5.40814569,14.6937152 5.49748926,14.7483092 C5.60080156,14.812024 5.73014506,14.812024 5.83348861,14.7483092 C5.92348843,14.6930262 6.00748827,14.6559194 6.0914881,14.6335438 L7.1667985,14.3514532 C7.28614202,14.3199567 7.38014184,14.2219894 7.40948553,14.0966596 L7.53748528,13.5591192 C7.56748522,13.435922 7.53017279,13.3057692 7.44217296,13.218957 C7.21482966,12.9949709 7.0641737,12.6667182 7.0395175,12.3405653 C7.02751752,12.180983 6.88220531,12.0535862 6.72951811,12.0241895 L6.6815182,11.6175237 C6.75683055,11.6042361 6.82551792,11.5643405 6.87683032,11.5034473 C6.9401427,11.4278557 6.96951764,11.3277886 6.95748641,11.227656 C6.95683016,11.2255562 6.89817403,10.7468093 6.89817403,10.5865052 C6.89817403,10.2645519 6.89817403,9.98669366 7.74217238,9.9775728 C7.81017225,9.97688381 7.87751586,9.95447536 7.93285951,9.91248002 C8.21017146,9.70388129 8.53154584,9.70388129 8.68551429,9.70388129 C9.12820092,9.70388129 9.24620069,9.8942383 9.28551311,9.95657513 C9.39285665,10.129445 9.35485673,10.1721293 9.32816928,10.2022479 L9.19816953,10.3387327 C9.13948215,10.4003478 9.10482597,10.4822387 9.10082597,10.5690181 L9.06882604,11.2542312 C9.06482605,11.3494097 9.06151355,11.3991151 9.12348218,11.4684074 C9.18548206,11.5376997 9.23616946,11.5341892 9.32682553,11.534911 L9.2694819,12.0199572 C9.11948219,12.0451544 9.00148242,12.1753399 8.98882619,12.3384 C8.96348249,12.6694742 8.80213906,13.0131142 8.56682702,13.2343115 C8.4748272,13.3210909 8.43613977,13.4540653 8.46617096,13.5800513 L8.58882697,14.0944942 C8.61882692,14.2191023 8.71217048,14.3177913 8.831514,14.348566 L9.9061994,14.6306566 C9.99085549,14.6530322 10.0755428,14.690828 10.1648551,14.745422 C10.2681987,14.8091368 10.3975109,14.8091368 10.5008545,14.745422 C10.5908543,14.6901391 10.6748542,14.6530322 10.758854,14.6306566 L11.8341956,14.348566 C11.9535079,14.3170695 12.0475077,14.2191023 12.0768827,14.0937724 L12.2048824,13.556232 C12.2348824,13.4330348 12.1975699,13.3028492 12.1095701,13.2160698 C11.8822268,12.9921165 11.7315708,12.663831 11.7068834,12.3376782 C11.6948834,12.1780959 11.5495712,12.0507319 11.396884,12.0213351 L11.3488841,11.6146693 C11.4242277,11.6013817 11.4928838,11.5614861 11.5442275,11.5005929 C11.6075398,11.4250013 11.6368835,11.3249343 11.6248835,11.2248016 C11.6242273,11.2227019 11.5655712,10.743955 11.5655712,10.5836509 C11.5655712,10.2616975 11.5655712,9.98383929 12.4095695,9.97471843 C12.4775694,9.97402944 12.544913,9.95162099 12.6002566,9.90962565 C12.8775998,9.70105973 13.1989117,9.70105973 13.3529427,9.70105973 C13.7955981,9.70105973 13.9135978,9.89141673 13.9529415,9.95372076 C14.0602538,10.1266235 14.0222539,10.169275 13.9955977,10.1993935 L13.8655979,10.3358784 C13.8069105,10.3974934 13.7722856,10.4793843 13.7682544,10.5661309 L13.7362544,11.251344 C13.7322544,11.3465553 13.7289419,11.3962279 13.7909418,11.4655202 C13.8529417,11.5348125 13.9036291,11.531302 13.9942852,11.531991 L13.9369415,12.0170372 C13.7869418,12.0422344 13.6689421,12.1724199 13.6562546,12.3355128 C13.6309421,12.6665542 13.4695674,13.010227 13.2342554,13.2313915 C13.1422556,13.3182038 13.1035682,13.4511781 13.1335993,13.5771641 L13.2562554,14.091607 C13.2862553,14.2161823 13.3795676,14.3149041 13.4989424,14.3456788 L14.574284,14.6277366 C14.9089396,14.7159268 15.1675954,14.9728202 15.2769389,15.2996621 L0.723498587,15.2991043 Z" id="Shape"></path>
                </g>
            </g>
        </g>
    </g>
</svg>