<?xml version="1.0" encoding="UTF-8"?>
<svg width="22px" height="12px" viewBox="0 0 22 12" version="1.1" xmlns="http://www.w3.org/2000/svg" xmlns:xlink="http://www.w3.org/1999/xlink">
    <!-- Generator: Sketch 46.2 (44496) - http://www.bohemiancoding.com/sketch -->
    <title>Fill-128</title>
    <desc>Created with Sketch.</desc>
    <defs></defs>
    <g id="user-interface" stroke="none" stroke-width="1" fill="none" fill-rule="evenodd" opacity="0.4">
        <g id="03-1_Клиент_главная" transform="translate(-1054.000000, -1738.000000)" fill="#FFFFFF">
            <g id="Footer" transform="translate(0.000000, 1442.000000)">
                <g id="BTM" transform="translate(168.000000, 294.000000)">
                    <g id="icons" transform="translate(822.000000, 0.000000)">
                        <path d="M74.2909234,13.9493731 L75.5483399,13.9493731 C75.5483399,13.9493731 75.928118,13.9078848 76.1221559,13.6985281 C76.3008749,13.5070434 76.2951304,13.1464138 76.2951304,13.1464138 C76.2951304,13.1464138 76.2702374,11.4594331 77.05341,11.2111413 C77.8250935,10.9660408 78.8163462,12.8413147 79.8669592,13.5625739 C80.6609826,14.1083055 81.2647979,13.9889466 81.2647979,13.9889466 L84.0738791,13.9493731 C84.0738791,13.9493731 85.5432054,13.858737 84.8462009,12.7034457 C84.7893938,12.6089799 84.4402533,11.8487855 82.7577406,10.2869082 C80.9960809,8.65226675 81.2322455,8.9165157 83.3538965,6.08892427 C84.6457802,4.36683811 85.162789,3.31558685 85.0013036,2.86495941 C84.8474775,2.43603358 83.8970749,2.54964786 83.8970749,2.54964786 L80.7343851,2.56879633 C80.7343851,2.56879633 80.4994972,2.53688221 80.3258843,2.64092226 C80.1561012,2.74304745 80.0469549,2.98048854 80.0469549,2.98048854 C80.0469549,2.98048854 79.5459031,4.31322238 78.8788979,5.4461738 C77.4702085,7.83781829 76.9072433,7.96419822 76.6768233,7.8154784 C76.1413043,7.46952929 76.2753436,6.42529914 76.2753436,5.68361489 C76.2753436,3.36601116 76.6270373,2.39965147 75.5904665,2.14944474 C75.2470706,2.06646801 74.9936724,2.01157572 74.1141191,2.00263977 C72.9856357,1.99115068 72.0307651,2.00646946 71.4901398,2.27135669 C71.1301485,2.44752266 70.8524956,2.84006639 71.0216405,2.86240628 C71.2309971,2.89049071 71.7039645,2.99006278 71.9554478,3.33154391 C72.279057,3.77259711 72.2682062,4.76321154 72.2682062,4.76321154 C72.2682062,4.76321154 72.4539464,7.4912309 71.8328975,7.82952062 C71.4065248,8.06249373 70.8218581,7.58761155 69.5663564,5.41808937 C68.9229676,4.30683956 68.4372347,3.07814576 68.4372347,3.07814576 C68.4372347,3.07814576 68.3440454,2.84900235 68.1768154,2.72581383 C67.9738416,2.57709401 67.6910824,2.5298611 67.6910824,2.5298611 L64.6854102,2.54964786 C64.6854102,2.54964786 64.2341445,2.56241351 64.0688293,2.75836623 C63.9213861,2.93261735 64.0567019,3.29388524 64.0567019,3.29388524 C64.0567019,3.29388524 66.4094112,8.79843344 69.0742406,11.5724091 C71.5169477,14.1166031 74.2909234,13.9493731 74.2909234,13.9493731" id="Fill-128"></path>
                    </g>
                </g>
            </g>
        </g>
    </g>
</svg>