<svg xmlns="http://www.w3.org/2000/svg" xmlns:xlink="http://www.w3.org/1999/xlink" width="34" height="34" viewBox="0 0 34 34">
    <defs>
        <path id="a" d="M17 34c9.389 0 17-7.611 17-17S26.389 0 17 0 0 7.611 0 17s7.611 17 17 17z"/>
    </defs>
    <g fill="none" fill-rule="evenodd">
        <mask id="b" fill="#fff">
            <use xlink:href="#a"/>
        </mask>
        <use fill="#F8F8F8" xlink:href="#a"/>
        <path fill="#474A51" fill-rule="nonzero" d="M25.71 27.3l-4.309-1.077-.249-.996c2.974-.5 4.504-1.391 4.571-1.43a.564.564 0 0 0 .058-.93c-.02-.016-2.031-1.676-2.031-7.43 0-4.852-1.135-7.312-3.375-7.312h-.332C19.235 7.345 18.63 7 17 7c-2.114 0-6.75 2.125-6.75 8.437 0 5.754-2.01 7.414-2.025 7.425a.562.562 0 0 0 .047.931c.068.041 1.583.937 4.574 1.436l-.248.994-4.31 1.078A6.315 6.315 0 0 0 3.5 33.437c0 .31.252.563.563.563h25.874c.311 0 .563-.254.563-.565a6.314 6.314 0 0 0-4.79-6.134z" mask="url(#b)"/>
    </g>
</svg>
