<svg xmlns="http://www.w3.org/2000/svg" xmlns:xlink="http://www.w3.org/1999/xlink" width="64" height="64" viewBox="0 0 64 64">
    <defs>
        <path id="a" d="M32 64c17.673 0 32-14.327 32-32C64 14.327 49.673 0 32 0 14.327 0 0 14.327 0 32c0 17.673 14.327 32 32 32z"/>
    </defs>
    <g fill="none" fill-rule="evenodd">
        <use fill="#0069C4" xlink:href="#a"/>
        <g opacity=".4" transform="translate(12 13)">
            <path d="M0 0h40v39H0z"/>
            <ellipse cx="20" cy="19.5" fill="#FFF" rx="5.333" ry="5.2"/>
            <path fill="#FFF" d="M15 3.25L11.95 6.5H6.667c-1.834 0-3.334 1.463-3.334 3.25v19.5c0 1.788 1.5 3.25 3.334 3.25h26.666c1.834 0 3.334-1.462 3.334-3.25V9.75c0-1.787-1.5-3.25-3.334-3.25H28.05L25 3.25H15zm5 24.375c-4.6 0-8.333-3.64-8.333-8.125 0-4.485 3.733-8.125 8.333-8.125s8.333 3.64 8.333 8.125c0 4.485-3.733 8.125-8.333 8.125z"/>
        </g>
    </g>
</svg>
