<svg xmlns="http://www.w3.org/2000/svg" width="92" height="24" viewBox="0 0 92 24">
    <g fill="none" fill-rule="evenodd">
        <path fill="#474A51" d="M7.13 7.4c4.38 0 6.27 2.97 6.27 5.91v8.49c0 .75-.63 1.35-1.38 1.35-.75 0-1.35-.6-1.35-1.35v-.78c-1.08 1.11-2.82 2.28-5.64 2.28-2.61 0-4.89-1.68-4.89-4.5 0-2.82 2.22-4.86 6.9-4.86h3.63v-.24c0-2.67-1.32-3.72-4.02-3.72-1.68 0-2.88.36-3.99.72-.12.03-.27.06-.39.06-.6 0-1.11-.48-1.11-1.14 0-.51.27-.93.78-1.14C3.35 7.88 5 7.4 7.13 7.4zM6.05 20.9c1.86 0 3.6-1.08 4.62-2.25v-2.52H7.4c-2.82 0-4.53.66-4.53 2.37 0 1.29.75 2.4 3.18 2.4zM20.122.95c.78 0 1.38.6 1.38 1.38V21.8c0 .75-.6 1.35-1.38 1.35-.75 0-1.35-.6-1.35-1.35V2.33c0-.78.6-1.38 1.35-1.38zm8.463 0c.78 0 1.38.6 1.38 1.38V21.8c0 .75-.6 1.35-1.38 1.35-.75 0-1.35-.6-1.35-1.35V2.33c0-.78.6-1.38 1.35-1.38zm41.874 6.6c.78 0 1.38.6 1.38 1.38V21.8c0 .75-.6 1.35-1.38 1.35-.75 0-1.35-.6-1.35-1.35V8.93c0-.78.6-1.38 1.35-1.38zm15.19-.15c3.42 0 5.37 2.67 5.37 5.88v8.52c0 .75-.63 1.35-1.38 1.35-.75 0-1.35-.6-1.35-1.35v-8.22c0-2.28-.96-3.66-3.3-3.66-2.16 0-3.72 1.38-4.92 2.88v9c0 .75-.63 1.35-1.38 1.35-.75 0-1.35-.6-1.35-1.35V8.93c0-.78.6-1.38 1.35-1.38.75 0 1.38.6 1.38 1.38v1.23c1.26-1.38 2.91-2.76 5.58-2.76zM72.11 2.93v.12c0 .84-.69 1.53-1.53 1.53h-.18c-.84 0-1.53-.69-1.53-1.53v-.12c0-.84.69-1.53 1.53-1.53h.18c.84 0 1.53.69 1.53 1.53z"/>
        <path fill="#007AFF" d="M41.218 7.4c4.38 0 6.27 2.97 6.27 5.91v8.49c0 .75-.63 1.35-1.38 1.35-.75 0-1.35-.6-1.35-1.35v-.78c-1.08 1.11-2.82 2.28-5.64 2.28-2.61 0-4.89-1.68-4.89-4.5 0-2.82 2.22-4.86 6.9-4.86h3.63v-.24c0-2.67-1.32-3.72-4.02-3.72-1.68 0-2.88.36-3.99.72-.12.03-.27.06-.39.06-.6 0-1.11-.48-1.11-1.14 0-.51.27-.93.78-1.14 1.41-.6 3.06-1.08 5.19-1.08zm-1.08 13.5c1.86 0 3.6-1.08 4.62-2.25v-2.52h-3.27c-2.82 0-4.53.66-4.53 2.37 0 1.29.75 2.4 3.18 2.4zM63.848 7.55c.75 0 1.35.63 1.35 1.38 0 .24-.06.42-.15.63l-5.22 12.48c-.27.6-.9 1.11-1.65 1.11h-.3c-.75 0-1.38-.51-1.65-1.11l-5.22-12.48c-.09-.21-.15-.39-.15-.63 0-.75.6-1.38 1.35-1.38.54 0 1.05.33 1.23.78l4.59 11.64 4.59-11.64c.18-.45.69-.78 1.23-.78z"/>
    </g>
</svg>
