<svg xmlns="http://www.w3.org/2000/svg" xmlns:xlink="http://www.w3.org/1999/xlink" width="34" height="34" viewBox="0 0 34 34">
    <defs>
        <path id="a" d="M17 34c9.389 0 17-7.611 17-17S26.389 0 17 0 0 7.611 0 17s7.611 17 17 17z"/>
    </defs>
    <g fill="none" fill-rule="evenodd">
        <mask id="b" fill="#fff">
            <use xlink:href="#a"/>
        </mask>
        <use fill="#F8F8F8" xlink:href="#a"/>
        <path fill="#474A51" d="M17 7.65c3.372 0 5.95 2.578 5.95 5.95 0 3.372-2.578 5.95-5.95 5.95-3.372 0-5.95-2.578-5.95-5.95 0-3.372 2.578-5.95 5.95-5.95zm0 28.163c-4.958 0-9.322-2.578-11.9-6.346 0-3.967 7.933-6.149 11.9-6.149 3.967 0 11.9 2.182 11.9 6.149-2.578 3.768-6.942 6.346-11.9 6.346z" mask="url(#b)"/>
    </g>
</svg>
