<?xml version="1.0" encoding="UTF-8"?>
<svg width="8px" height="8px" viewBox="0 0 8 8" version="1.1" xmlns="http://www.w3.org/2000/svg" xmlns:xlink="http://www.w3.org/1999/xlink">
    <!-- Generator: Sketch 46.2 (44496) - http://www.bohemiancoding.com/sketch -->
    <title>Star</title>
    <desc>Created with Sketch.</desc>
    <defs></defs>
    <g id="user-interface" stroke="none" stroke-width="1" fill="none" fill-rule="evenodd">
        <g id="03-1_Клиент_главная" transform="translate(-931.000000, -615.000000)" fill="#FACE02">
            <g id="Group-Copy-2" transform="translate(809.000000, 433.000000)">
                <g id="Stars" transform="translate(110.000000, 176.000000)">
                    <path d="M15.9981597,12.8689849 L14.0877781,13.9162234 C13.5994292,14.1839278 13.2777563,13.9497774 13.3665792,13.4097841 L13.7372683,11.1562013 L12.1793438,9.57274721 C11.7911059,9.17814732 11.9108218,8.79243642 12.4649804,8.70847363 L14.600852,8.38485915 L15.5713288,6.33448176 C15.807061,5.83643794 16.1924494,5.84317961 16.4249906,6.33448176 L17.3954674,8.38485915 L19.5313391,8.70847363 C20.0773297,8.79119886 20.2055752,9.17777967 19.8169756,9.57274721 L18.2590511,11.1562013 L18.6297403,13.4097841 C18.719782,13.9571872 18.4041959,14.1879326 17.9085414,13.9162234 L15.9981597,12.8689849 Z" id="Star"></path>
                </g>
            </g>
        </g>
    </g>
</svg>